<svg width="137" height="35" viewBox="0 0 137 35" fill="none" xmlns="http://www.w3.org/2000/svg">
<rect x="20" y="7" width="117" height="20" rx="5" fill="#369901"/>
<circle cx="17.5" cy="17.5" r="17.5" fill="#68D12D"/>
<g clip-path="url(#clip0_22_60)">
<path d="M24.0012 9.90757C23.0845 8.98194 21.9926 8.24813 20.7893 7.74894C19.586 7.24975 18.2953 6.99517 16.9925 7.00007C11.5337 7.00007 7.085 11.4476 7.08 16.9076C7.08 18.6563 7.5375 20.3576 8.40125 21.8638L7 27.0001L12.255 25.6226C13.7081 26.4154 15.3372 26.8302 16.9925 26.8288H16.9975C22.4575 26.8288 26.905 22.3813 26.91 16.9163C26.9111 15.6139 26.6546 14.3241 26.1551 13.1212C25.6557 11.9184 24.9245 10.8262 24.0012 9.90757ZM16.9925 25.1513C15.5165 25.1502 14.0678 24.753 12.7975 24.0013L12.4975 23.8213L9.38 24.6388L10.2125 21.5976L10.0175 21.2838C9.19226 19.9717 8.75581 18.4526 8.75875 16.9026C8.75875 12.3701 12.455 8.67257 16.9975 8.67257C18.0797 8.67063 19.1515 8.88291 20.1513 9.29718C21.151 9.71145 22.0589 10.3195 22.8225 11.0863C23.5886 11.8503 24.196 12.7582 24.6096 13.758C25.0232 14.7577 25.2349 15.8294 25.2325 16.9113C25.2275 21.4601 21.5312 25.1513 16.9925 25.1513ZM21.5113 18.9838C21.265 18.8601 20.0487 18.2613 19.82 18.1763C19.5925 18.0951 19.4262 18.0526 19.2637 18.3001C19.0975 18.5463 18.6225 19.1076 18.48 19.2688C18.3375 19.4351 18.19 19.4538 17.9425 19.3313C17.6962 19.2063 16.8975 18.9463 15.9525 18.1001C15.215 17.4438 14.7213 16.6313 14.5738 16.3851C14.4313 16.1376 14.56 16.0051 14.6837 15.8813C14.7925 15.7713 14.93 15.5913 15.0537 15.4488C15.1787 15.3063 15.22 15.2013 15.3012 15.0363C15.3825 14.8688 15.3437 14.7263 15.2825 14.6026C15.22 14.4788 14.7262 13.2576 14.5175 12.7651C14.3175 12.2788 14.1137 12.3463 13.9612 12.3401C13.8187 12.3313 13.6525 12.3313 13.4863 12.3313C13.3607 12.3345 13.2372 12.3636 13.1234 12.4167C13.0096 12.4698 12.908 12.5459 12.825 12.6401C12.5975 12.8876 11.9613 13.4863 11.9613 14.7076C11.9613 15.9288 12.8487 17.1026 12.9737 17.2688C13.0962 17.4351 14.7162 19.9338 17.2025 21.0088C17.79 21.2651 18.2525 21.4163 18.6138 21.5313C19.2075 21.7213 19.7437 21.6926 20.1712 21.6313C20.6462 21.5588 21.635 21.0313 21.8438 20.4526C22.0488 19.8726 22.0488 19.3776 21.9863 19.2738C21.925 19.1688 21.7588 19.1076 21.5113 18.9838Z" fill="white"/>
</g>
<path d="M44.3877 20H42.8984V12.8613H46.9902V14.1016H44.3877V15.9424H46.8096V17.1777H44.3877V20ZM50.5059 14.4287C51.2383 14.4287 51.7998 14.5882 52.1904 14.9072C52.5811 15.2262 52.7764 15.7113 52.7764 16.3623V20H51.7363L51.4482 19.2578H51.4092C51.2529 19.4531 51.0934 19.6126 50.9307 19.7363C50.7679 19.86 50.5807 19.9512 50.3691 20.0098C50.1576 20.0684 49.9004 20.0977 49.5977 20.0977C49.2754 20.0977 48.9857 20.0358 48.7285 19.9121C48.4746 19.7884 48.2744 19.5996 48.1279 19.3457C47.9814 19.0885 47.9082 18.763 47.9082 18.3691C47.9082 17.7897 48.1117 17.3633 48.5186 17.0898C48.9255 16.8132 49.5358 16.6602 50.3496 16.6309L51.2969 16.6016V16.3623C51.2969 16.0758 51.222 15.8659 51.0723 15.7324C50.9225 15.599 50.7142 15.5322 50.4473 15.5322C50.1836 15.5322 49.9248 15.5697 49.6709 15.6445C49.417 15.7194 49.1631 15.8138 48.9092 15.9277L48.416 14.9219C48.7057 14.7689 49.0296 14.6484 49.3877 14.5605C49.749 14.4727 50.1217 14.4287 50.5059 14.4287ZM51.2969 17.4707L50.7207 17.4902C50.2389 17.5033 49.9036 17.5895 49.7148 17.749C49.5293 17.9085 49.4365 18.1185 49.4365 18.3789C49.4365 18.6068 49.5033 18.7695 49.6367 18.8672C49.7702 18.9616 49.9443 19.0088 50.1592 19.0088C50.4782 19.0088 50.7467 18.9144 50.9648 18.7256C51.1862 18.5368 51.2969 18.2682 51.2969 17.9199V17.4707ZM56.5312 20.0977C55.9909 20.0977 55.5303 20 55.1494 19.8047C54.7686 19.6061 54.4788 19.3001 54.2803 18.8867C54.0817 18.4733 53.9824 17.9443 53.9824 17.2998C53.9824 16.6325 54.0947 16.0889 54.3193 15.6689C54.5472 15.2458 54.8613 14.9349 55.2617 14.7363C55.6654 14.5378 56.1325 14.4385 56.6631 14.4385C57.0407 14.4385 57.3662 14.4759 57.6396 14.5508C57.9163 14.6224 58.1572 14.7087 58.3623 14.8096L57.9229 15.9619C57.6885 15.8675 57.4704 15.791 57.2686 15.7324C57.0667 15.6706 56.8649 15.6396 56.6631 15.6396C56.4027 15.6396 56.1862 15.7015 56.0137 15.8252C55.8411 15.9456 55.7126 16.1279 55.6279 16.3721C55.5433 16.6162 55.501 16.9222 55.501 17.29C55.501 17.6514 55.5465 17.9508 55.6377 18.1885C55.7288 18.4261 55.8607 18.6035 56.0332 18.7207C56.2057 18.8346 56.4157 18.8916 56.6631 18.8916C56.9723 18.8916 57.2474 18.8509 57.4883 18.7695C57.7292 18.6849 57.9635 18.5677 58.1914 18.418V19.6924C57.9635 19.8356 57.7243 19.9382 57.4736 20C57.2262 20.0651 56.9121 20.0977 56.5312 20.0977ZM57.6055 21.2207C57.6055 21.5951 57.4964 21.8848 57.2783 22.0898C57.0602 22.2982 56.6663 22.4023 56.0967 22.4023C55.9502 22.4023 55.8184 22.3926 55.7012 22.373C55.584 22.3535 55.4782 22.3291 55.3838 22.2998V21.4795C55.4782 21.5023 55.5938 21.5251 55.7305 21.5479C55.8672 21.5706 55.9844 21.582 56.082 21.582C56.1764 21.582 56.2578 21.5592 56.3262 21.5137C56.3978 21.4714 56.4336 21.3932 56.4336 21.2793C56.4336 21.1589 56.3734 21.0514 56.2529 20.957C56.1325 20.8626 55.9225 20.7943 55.623 20.752L56.0039 20H56.9463L56.8145 20.2979C56.9479 20.3402 57.0749 20.402 57.1953 20.4834C57.3158 20.568 57.4134 20.6706 57.4883 20.791C57.5664 20.9147 57.6055 21.0579 57.6055 21.2207ZM61.6973 14.4287C62.4297 14.4287 62.9912 14.5882 63.3818 14.9072C63.7725 15.2262 63.9678 15.7113 63.9678 16.3623V20H62.9277L62.6396 19.2578H62.6006C62.4443 19.4531 62.2848 19.6126 62.1221 19.7363C61.9593 19.86 61.7721 19.9512 61.5605 20.0098C61.349 20.0684 61.0918 20.0977 60.7891 20.0977C60.4668 20.0977 60.1771 20.0358 59.9199 19.9121C59.666 19.7884 59.4658 19.5996 59.3193 19.3457C59.1729 19.0885 59.0996 18.763 59.0996 18.3691C59.0996 17.7897 59.3031 17.3633 59.71 17.0898C60.1169 16.8132 60.7272 16.6602 61.541 16.6309L62.4883 16.6016V16.3623C62.4883 16.0758 62.4134 15.8659 62.2637 15.7324C62.1139 15.599 61.9056 15.5322 61.6387 15.5322C61.375 15.5322 61.1162 15.5697 60.8623 15.6445C60.6084 15.7194 60.3545 15.8138 60.1006 15.9277L59.6074 14.9219C59.8971 14.7689 60.221 14.6484 60.5791 14.5605C60.9404 14.4727 61.3132 14.4287 61.6973 14.4287ZM62.4883 17.4707L61.9121 17.4902C61.4303 17.5033 61.0951 17.5895 60.9062 17.749C60.7207 17.9085 60.6279 18.1185 60.6279 18.3789C60.6279 18.6068 60.6947 18.7695 60.8281 18.8672C60.9616 18.9616 61.1357 19.0088 61.3506 19.0088C61.6696 19.0088 61.9382 18.9144 62.1562 18.7256C62.3776 18.5368 62.4883 18.2682 62.4883 17.9199V17.4707ZM71.9121 18.3789C71.9121 18.75 71.8242 19.0641 71.6484 19.3213C71.4759 19.5752 71.2171 19.7689 70.8721 19.9023C70.527 20.0326 70.0973 20.0977 69.583 20.0977C69.2021 20.0977 68.875 20.0732 68.6016 20.0244C68.3314 19.9756 68.0579 19.8942 67.7812 19.7803V18.5498C68.0775 18.6833 68.3949 18.7939 68.7334 18.8818C69.0752 18.9665 69.3747 19.0088 69.6318 19.0088C69.9215 19.0088 70.1283 18.9665 70.252 18.8818C70.3789 18.7939 70.4424 18.68 70.4424 18.54C70.4424 18.4489 70.4163 18.3675 70.3643 18.2959C70.3154 18.221 70.208 18.138 70.042 18.0469C69.876 17.9525 69.6156 17.8304 69.2607 17.6807C68.9189 17.5374 68.6374 17.3926 68.416 17.2461C68.1979 17.0996 68.0352 16.9271 67.9277 16.7285C67.8236 16.5267 67.7715 16.2712 67.7715 15.9619C67.7715 15.4574 67.9668 15.0781 68.3574 14.8242C68.7513 14.5671 69.277 14.4385 69.9346 14.4385C70.2731 14.4385 70.5954 14.4727 70.9014 14.541C71.2106 14.6094 71.528 14.7184 71.8535 14.8682L71.4043 15.9424C71.1341 15.8252 70.8786 15.7292 70.6377 15.6543C70.4001 15.5794 70.1576 15.542 69.9102 15.542C69.6921 15.542 69.5277 15.5713 69.417 15.6299C69.3063 15.6885 69.251 15.778 69.251 15.8984C69.251 15.9863 69.2786 16.0645 69.334 16.1328C69.3926 16.2012 69.5033 16.2777 69.666 16.3623C69.832 16.4437 70.0745 16.5495 70.3936 16.6797C70.7028 16.8066 70.9714 16.9401 71.1992 17.0801C71.4271 17.2168 71.6029 17.3877 71.7266 17.5928C71.8503 17.7946 71.9121 18.0566 71.9121 18.3789ZM78.084 14.541V20H76.9414L76.7412 19.3018H76.6631C76.5459 19.4873 76.3994 19.6387 76.2236 19.7559C76.0479 19.873 75.8542 19.9593 75.6426 20.0146C75.431 20.07 75.2113 20.0977 74.9834 20.0977C74.5928 20.0977 74.2526 20.0293 73.9629 19.8926C73.6732 19.7526 73.4469 19.5361 73.2842 19.2432C73.1247 18.9502 73.0449 18.5693 73.0449 18.1006V14.541H74.5342V17.7295C74.5342 18.1201 74.6042 18.4147 74.7441 18.6133C74.8841 18.8118 75.1071 18.9111 75.4131 18.9111C75.7158 18.9111 75.9535 18.8428 76.126 18.7061C76.2985 18.5661 76.4189 18.3626 76.4873 18.0957C76.5589 17.8255 76.5947 17.4967 76.5947 17.1094V14.541H78.084ZM81.8828 14.4287C82.6152 14.4287 83.1768 14.5882 83.5674 14.9072C83.958 15.2262 84.1533 15.7113 84.1533 16.3623V20H83.1133L82.8252 19.2578H82.7861C82.6299 19.4531 82.4704 19.6126 82.3076 19.7363C82.1449 19.86 81.9577 19.9512 81.7461 20.0098C81.5345 20.0684 81.2773 20.0977 80.9746 20.0977C80.6523 20.0977 80.3626 20.0358 80.1055 19.9121C79.8516 19.7884 79.6514 19.5996 79.5049 19.3457C79.3584 19.0885 79.2852 18.763 79.2852 18.3691C79.2852 17.7897 79.4886 17.3633 79.8955 17.0898C80.3024 16.8132 80.9128 16.6602 81.7266 16.6309L82.6738 16.6016V16.3623C82.6738 16.0758 82.599 15.8659 82.4492 15.7324C82.2995 15.599 82.0911 15.5322 81.8242 15.5322C81.5605 15.5322 81.3018 15.5697 81.0479 15.6445C80.7939 15.7194 80.54 15.8138 80.2861 15.9277L79.793 14.9219C80.0827 14.7689 80.4066 14.6484 80.7646 14.5605C81.126 14.4727 81.4987 14.4287 81.8828 14.4287ZM82.6738 17.4707L82.0977 17.4902C81.6159 17.5033 81.2806 17.5895 81.0918 17.749C80.9062 17.9085 80.8135 18.1185 80.8135 18.3789C80.8135 18.6068 80.8802 18.7695 81.0137 18.8672C81.1471 18.9616 81.3213 19.0088 81.5361 19.0088C81.8551 19.0088 82.1237 18.9144 82.3418 18.7256C82.5632 18.5368 82.6738 18.2682 82.6738 17.9199V17.4707ZM90.5059 20.0977C89.9655 20.0977 89.5049 20 89.124 19.8047C88.7432 19.6061 88.4535 19.3001 88.2549 18.8867C88.0563 18.4733 87.957 17.9443 87.957 17.2998C87.957 16.6325 88.0693 16.0889 88.2939 15.6689C88.5218 15.2458 88.8359 14.9349 89.2363 14.7363C89.64 14.5378 90.1071 14.4385 90.6377 14.4385C91.0153 14.4385 91.3408 14.4759 91.6143 14.5508C91.891 14.6224 92.1318 14.7087 92.3369 14.8096L91.8975 15.9619C91.6631 15.8675 91.445 15.791 91.2432 15.7324C91.0413 15.6706 90.8395 15.6396 90.6377 15.6396C90.3773 15.6396 90.1608 15.7015 89.9883 15.8252C89.8158 15.9456 89.6872 16.1279 89.6025 16.3721C89.5179 16.6162 89.4756 16.9222 89.4756 17.29C89.4756 17.6514 89.5212 17.9508 89.6123 18.1885C89.7035 18.4261 89.8353 18.6035 90.0078 18.7207C90.1803 18.8346 90.3903 18.8916 90.6377 18.8916C90.9469 18.8916 91.222 18.8509 91.4629 18.7695C91.7038 18.6849 91.9382 18.5677 92.166 18.418V19.6924C91.9382 19.8356 91.6989 19.9382 91.4482 20C91.2008 20.0651 90.8867 20.0977 90.5059 20.0977ZM98.3965 17.2607C98.3965 17.7165 98.3346 18.1201 98.2109 18.4717C98.0905 18.8232 97.9131 19.1211 97.6787 19.3652C97.4476 19.6061 97.1676 19.7884 96.8389 19.9121C96.5133 20.0358 96.1455 20.0977 95.7354 20.0977C95.3512 20.0977 94.998 20.0358 94.6758 19.9121C94.3568 19.7884 94.0785 19.6061 93.8408 19.3652C93.6064 19.1211 93.4242 18.8232 93.2939 18.4717C93.167 18.1201 93.1035 17.7165 93.1035 17.2607C93.1035 16.6553 93.2109 16.1426 93.4258 15.7227C93.6406 15.3027 93.9466 14.9837 94.3438 14.7656C94.7409 14.5475 95.2145 14.4385 95.7646 14.4385C96.2757 14.4385 96.7282 14.5475 97.1221 14.7656C97.5192 14.9837 97.8301 15.3027 98.0547 15.7227C98.2826 16.1426 98.3965 16.6553 98.3965 17.2607ZM94.6221 17.2607C94.6221 17.6188 94.6611 17.9199 94.7393 18.1641C94.8174 18.4082 94.9395 18.5921 95.1055 18.7158C95.2715 18.8395 95.488 18.9014 95.7549 18.9014C96.0186 18.9014 96.2318 18.8395 96.3945 18.7158C96.5605 18.5921 96.681 18.4082 96.7559 18.1641C96.834 17.9199 96.873 17.6188 96.873 17.2607C96.873 16.8994 96.834 16.5999 96.7559 16.3623C96.681 16.1214 96.5605 15.9408 96.3945 15.8203C96.2285 15.6999 96.012 15.6396 95.7451 15.6396C95.3512 15.6396 95.0648 15.7747 94.8857 16.0449C94.71 16.3151 94.6221 16.7204 94.6221 17.2607ZM101.927 18.9111C102.09 18.9111 102.247 18.8949 102.4 18.8623C102.557 18.8298 102.711 18.7891 102.864 18.7402V19.8486C102.705 19.9202 102.506 19.9788 102.269 20.0244C102.034 20.0732 101.777 20.0977 101.497 20.0977C101.172 20.0977 100.879 20.0456 100.618 19.9414C100.361 19.834 100.158 19.6501 100.008 19.3896C99.8613 19.126 99.7881 18.7598 99.7881 18.291V15.6592H99.0752V15.0293L99.8955 14.5312L100.325 13.3789H101.277V14.541H102.806V15.6592H101.277V18.291C101.277 18.4993 101.336 18.6556 101.453 18.7598C101.574 18.8607 101.731 18.9111 101.927 18.9111ZM106.209 14.4287C106.941 14.4287 107.503 14.5882 107.894 14.9072C108.284 15.2262 108.479 15.7113 108.479 16.3623V20H107.439L107.151 19.2578H107.112C106.956 19.4531 106.797 19.6126 106.634 19.7363C106.471 19.86 106.284 19.9512 106.072 20.0098C105.861 20.0684 105.604 20.0977 105.301 20.0977C104.979 20.0977 104.689 20.0358 104.432 19.9121C104.178 19.7884 103.978 19.5996 103.831 19.3457C103.685 19.0885 103.611 18.763 103.611 18.3691C103.611 17.7897 103.815 17.3633 104.222 17.0898C104.629 16.8132 105.239 16.6602 106.053 16.6309L107 16.6016V16.3623C107 16.0758 106.925 15.8659 106.775 15.7324C106.626 15.599 106.417 15.5322 106.15 15.5322C105.887 15.5322 105.628 15.5697 105.374 15.6445C105.12 15.7194 104.866 15.8138 104.612 15.9277L104.119 14.9219C104.409 14.7689 104.733 14.6484 105.091 14.5605C105.452 14.4727 105.825 14.4287 106.209 14.4287ZM107 17.4707L106.424 17.4902C105.942 17.5033 105.607 17.5895 105.418 17.749C105.232 17.9085 105.14 18.1185 105.14 18.3789C105.14 18.6068 105.206 18.7695 105.34 18.8672C105.473 18.9616 105.647 19.0088 105.862 19.0088C106.181 19.0088 106.45 18.9144 106.668 18.7256C106.889 18.5368 107 18.2682 107 17.9199V17.4707ZM112.234 20.0977C111.694 20.0977 111.233 20 110.853 19.8047C110.472 19.6061 110.182 19.3001 109.983 18.8867C109.785 18.4733 109.686 17.9443 109.686 17.2998C109.686 16.6325 109.798 16.0889 110.022 15.6689C110.25 15.2458 110.564 14.9349 110.965 14.7363C111.368 14.5378 111.836 14.4385 112.366 14.4385C112.744 14.4385 113.069 14.4759 113.343 14.5508C113.619 14.6224 113.86 14.7087 114.065 14.8096L113.626 15.9619C113.392 15.8675 113.174 15.791 112.972 15.7324C112.77 15.6706 112.568 15.6396 112.366 15.6396C112.106 15.6396 111.889 15.7015 111.717 15.8252C111.544 15.9456 111.416 16.1279 111.331 16.3721C111.246 16.6162 111.204 16.9222 111.204 17.29C111.204 17.6514 111.25 17.9508 111.341 18.1885C111.432 18.4261 111.564 18.6035 111.736 18.7207C111.909 18.8346 112.119 18.8916 112.366 18.8916C112.675 18.8916 112.951 18.8509 113.191 18.7695C113.432 18.6849 113.667 18.5677 113.895 18.418V19.6924C113.667 19.8356 113.427 19.9382 113.177 20C112.929 20.0651 112.615 20.0977 112.234 20.0977ZM113.309 21.2207C113.309 21.5951 113.2 21.8848 112.981 22.0898C112.763 22.2982 112.369 22.4023 111.8 22.4023C111.653 22.4023 111.521 22.3926 111.404 22.373C111.287 22.3535 111.181 22.3291 111.087 22.2998V21.4795C111.181 21.5023 111.297 21.5251 111.434 21.5479C111.57 21.5706 111.688 21.582 111.785 21.582C111.88 21.582 111.961 21.5592 112.029 21.5137C112.101 21.4714 112.137 21.3932 112.137 21.2793C112.137 21.1589 112.076 21.0514 111.956 20.957C111.836 20.8626 111.626 20.7943 111.326 20.752L111.707 20H112.649L112.518 20.2979C112.651 20.3402 112.778 20.402 112.898 20.4834C113.019 20.568 113.117 20.6706 113.191 20.791C113.27 20.9147 113.309 21.0579 113.309 21.2207ZM117.4 14.4287C118.133 14.4287 118.694 14.5882 119.085 14.9072C119.476 15.2262 119.671 15.7113 119.671 16.3623V20H118.631L118.343 19.2578H118.304C118.147 19.4531 117.988 19.6126 117.825 19.7363C117.662 19.86 117.475 19.9512 117.264 20.0098C117.052 20.0684 116.795 20.0977 116.492 20.0977C116.17 20.0977 115.88 20.0358 115.623 19.9121C115.369 19.7884 115.169 19.5996 115.022 19.3457C114.876 19.0885 114.803 18.763 114.803 18.3691C114.803 17.7897 115.006 17.3633 115.413 17.0898C115.82 16.8132 116.43 16.6602 117.244 16.6309L118.191 16.6016V16.3623C118.191 16.0758 118.117 15.8659 117.967 15.7324C117.817 15.599 117.609 15.5322 117.342 15.5322C117.078 15.5322 116.819 15.5697 116.565 15.6445C116.312 15.7194 116.058 15.8138 115.804 15.9277L115.311 14.9219C115.6 14.7689 115.924 14.6484 116.282 14.5605C116.644 14.4727 117.016 14.4287 117.4 14.4287ZM118.191 17.4707L117.615 17.4902C117.133 17.5033 116.798 17.5895 116.609 17.749C116.424 17.9085 116.331 18.1185 116.331 18.3789C116.331 18.6068 116.398 18.7695 116.531 18.8672C116.665 18.9616 116.839 19.0088 117.054 19.0088C117.373 19.0088 117.641 18.9144 117.859 18.7256C118.081 18.5368 118.191 18.2682 118.191 17.9199V17.4707ZM115.374 13.9502C115.394 13.6898 115.441 13.4652 115.516 13.2764C115.59 13.0843 115.688 12.9281 115.809 12.8076C115.929 12.6839 116.064 12.5928 116.214 12.5342C116.367 12.4723 116.53 12.4414 116.702 12.4414C116.836 12.4414 116.966 12.4674 117.093 12.5195C117.223 12.5684 117.35 12.627 117.474 12.6953C117.601 12.7637 117.724 12.8239 117.845 12.876C117.968 12.9248 118.089 12.9492 118.206 12.9492C118.304 12.9492 118.398 12.9069 118.489 12.8223C118.584 12.7344 118.652 12.6042 118.694 12.4316H119.422C119.383 12.946 119.236 13.3268 118.982 13.5742C118.729 13.8184 118.432 13.9404 118.094 13.9404C117.96 13.9404 117.828 13.9144 117.698 13.8623C117.571 13.8102 117.444 13.7516 117.317 13.6865C117.194 13.6182 117.072 13.5579 116.951 13.5059C116.831 13.4538 116.712 13.4277 116.595 13.4277C116.494 13.4277 116.396 13.4717 116.302 13.5596C116.211 13.6442 116.144 13.7744 116.102 13.9502H115.374ZM126.17 17.2607C126.17 17.7165 126.108 18.1201 125.984 18.4717C125.864 18.8232 125.687 19.1211 125.452 19.3652C125.221 19.6061 124.941 19.7884 124.612 19.9121C124.287 20.0358 123.919 20.0977 123.509 20.0977C123.125 20.0977 122.771 20.0358 122.449 19.9121C122.13 19.7884 121.852 19.6061 121.614 19.3652C121.38 19.1211 121.198 18.8232 121.067 18.4717C120.94 18.1201 120.877 17.7165 120.877 17.2607C120.877 16.6553 120.984 16.1426 121.199 15.7227C121.414 15.3027 121.72 14.9837 122.117 14.7656C122.514 14.5475 122.988 14.4385 123.538 14.4385C124.049 14.4385 124.502 14.5475 124.896 14.7656C125.293 14.9837 125.604 15.3027 125.828 15.7227C126.056 16.1426 126.17 16.6553 126.17 17.2607ZM122.396 17.2607C122.396 17.6188 122.435 17.9199 122.513 18.1641C122.591 18.4082 122.713 18.5921 122.879 18.7158C123.045 18.8395 123.261 18.9014 123.528 18.9014C123.792 18.9014 124.005 18.8395 124.168 18.7158C124.334 18.5921 124.454 18.4082 124.529 18.1641C124.607 17.9199 124.646 17.6188 124.646 17.2607C124.646 16.8994 124.607 16.5999 124.529 16.3623C124.454 16.1214 124.334 15.9408 124.168 15.8203C124.002 15.6999 123.785 15.6396 123.519 15.6396C123.125 15.6396 122.838 15.7747 122.659 16.0449C122.483 16.3151 122.396 16.7204 122.396 17.2607Z" fill="white"/>
<defs>
<clipPath id="clip0_22_60">
<rect width="20" height="20" fill="white" transform="translate(7 7)"/>
</clipPath>
</defs>
</svg>
