<svg width="114" height="80" viewBox="0 0 114 80" fill="none" xmlns="http://www.w3.org/2000/svg">
<path d="M93.7246 54.4963C93.3592 54.3429 92.9633 54.2201 92.5369 54.036C92.5369 54.036 92.3847 54.2201 92.2324 54.3429C92.141 54.1588 91.9888 53.944 92.0192 53.7905C92.2933 52.6245 92.6588 51.4892 92.8415 50.3231C92.9633 49.4947 92.8415 48.6355 92.8415 47.7763C92.8415 47.5615 92.6892 47.316 92.7197 47.1012C93.146 43.6032 91.197 40.504 91.2579 37.0673C90.6183 38.3867 90.3442 39.7369 91.1056 41.0256C92.0801 42.744 92.2324 44.493 91.9583 46.4569C91.5929 49.0651 91.5015 51.7347 91.3797 54.3735C91.3188 55.3248 91.0142 55.9998 90.192 56.5215C89.9788 56.6442 89.9179 57.0124 89.7961 57.2579C89.6133 57.5341 89.4611 57.9944 89.2479 58.0557C87.6947 58.3933 86.1111 58.516 84.1925 57.8409C85.3802 56.8897 86.2634 56.0612 87.2988 55.4168C88.0602 54.9566 88.3952 54.3122 88.5475 53.5144C89.0956 50.0163 88.6997 46.7637 86.2025 43.9714C85.3498 43.0202 84.9539 41.67 84.2534 40.5654C83.6748 39.6755 82.9439 38.8777 82.2435 38.0799C82.0912 37.8958 81.6344 37.8037 81.4517 37.8958C81.2689 37.9878 81.1776 38.4174 81.208 38.6629C81.3299 40.0437 81.1776 41.3018 79.9899 42.253C79.8072 42.4065 79.8681 42.8054 79.7462 43.0508C79.5026 43.7259 79.3199 44.493 78.924 45.076C77.249 47.7149 75.4827 50.2925 73.7773 52.9314C73.29 53.6678 73.0464 54.5577 72.0718 54.8645C71.8891 54.9259 71.6455 55.2327 71.6455 55.4475C71.5541 56.3067 70.9755 56.6135 70.275 56.5215C69.0569 56.3988 67.8387 56.184 66.3465 55.9692C71.8282 51.796 75.7263 47.1933 74.0818 39.8289C72.9245 40.2585 71.8586 40.6267 70.7928 41.0563C67.4733 42.4065 64.1233 42.1303 60.7429 41.3325C58.7025 40.8722 56.6012 40.6574 54.5303 40.3199C54.2258 40.2892 53.8908 40.3199 53.5862 40.3199C53.8603 42.7747 53.9212 45.1988 54.378 47.5615C54.8044 49.8629 55.6267 52.1029 56.3271 54.619C55.7485 54.4349 55.5657 54.3736 55.2917 54.3122C55.3221 54.4963 55.3526 54.6497 55.4135 54.7725C55.9921 56.4908 55.718 56.9818 53.9212 57.0431C52.9162 57.0738 51.9113 56.9511 50.9367 56.859C50.8758 56.767 50.8149 56.6749 50.7845 56.5522C51.1499 56.0305 51.4544 55.4475 51.9113 55.0486C52.7335 54.3122 53.099 53.5451 52.7944 52.4097C52.6422 51.9188 52.7335 51.3664 52.6726 50.8448C52.4594 49.2492 52.0331 47.7763 50.7845 46.6103C50.3581 46.2114 50.2058 45.4749 49.9622 44.8612C49.7186 44.2476 49.5054 43.6032 49.2009 42.744C48.8049 43.2963 48.5613 43.6032 48.3786 43.9407C47.2213 46.1193 45.9423 48.2366 44.9982 50.5073C44.2673 52.3177 44.0541 54.3429 43.4146 56.184C42.9882 57.3807 42.3487 58.5467 41.5569 59.5286C40.826 60.4185 39.6078 60.2037 38.5724 60.0196C38.0547 59.9275 37.5979 59.4672 37.0497 59.1604C37.6588 57.9023 38.3592 56.859 39.5165 56.2146C39.7906 56.0612 40.1255 55.8771 40.2778 55.6009C41.4351 53.6371 42.5619 51.6733 42.0442 49.1878C41.9223 48.5434 42.1051 47.7456 42.3487 47.0706C42.836 45.7204 43.0187 44.3703 42.6532 42.9895C42.5314 42.5599 42.166 42.0076 41.7701 41.8541C40.7346 41.4245 40.0342 40.7188 39.6078 39.6755C39.2424 38.7243 38.6028 38.1413 37.537 37.9572C35.8011 37.6503 34.4611 36.6991 33.852 35.0114C32.9384 32.4339 30.9893 30.8996 28.8271 29.5495C27.5176 28.721 26.6649 27.4936 26.1471 26.1128C25.3858 24.0876 24.1067 23.0443 21.8836 22.983C20.6654 22.983 19.6604 22.2465 18.9905 21.1419C18.0464 19.5769 18.3814 18.503 19.8736 17.4597C21.5486 16.263 23.1627 14.9128 24.7158 13.5627C25.1422 13.1945 25.2944 12.5808 25.5685 12.0591C26.4517 10.3715 28.218 9.75778 29.6494 8.74518C30.1975 8.37696 30.4412 8.00875 30.4412 7.33368C30.4412 5.24711 30.5325 3.16054 30.6848 1.07397C30.6848 0.705751 31.0198 0.368218 31.2025 0C31.4766 0.306848 31.9639 0.583012 32.0248 0.920545C32.4511 2.94575 32.7557 5.00163 33.0907 7.05751C33.182 7.7019 33.2125 8.25422 34.0652 8.22354C34.3088 8.22354 34.6134 8.31559 34.7961 8.4997C35.6488 9.29751 36.4102 8.89861 37.202 8.37696C38.3592 7.60984 39.2119 6.62793 39.821 5.33916C40.2778 4.32656 40.826 3.34465 41.4046 2.39342C41.5264 2.17862 41.8614 2.11725 42.1051 1.96383C42.2269 2.20931 42.4705 2.51616 42.4401 2.73095C42.166 3.98903 41.9832 5.27779 41.4655 6.44382C40.6128 8.28491 39.2424 9.69641 37.537 10.8011C37.2933 10.9545 37.0801 11.1386 36.8365 11.3227C37.7501 12.6728 39.1815 12.6422 39.8819 11.292C41.8005 7.67121 47.5868 5.12437 51.424 6.22902C54.1344 7.02683 55.5962 9.54299 54.9262 12.3353C54.4999 14.0843 54.8348 14.4526 56.6621 14.6367C63.7274 15.3424 70.7014 14.5446 77.6754 13.7468C79.5026 13.532 81.2994 13.5934 83.0048 14.2378C84.7103 14.8822 86.4461 15.5572 88.0906 16.355C89.9483 17.2756 90.9533 18.9632 91.4101 20.9271C91.8974 23.075 92.3847 25.2536 92.5674 27.4323C92.7197 29.212 92.6283 31.0531 92.3847 32.8328C92.141 34.6739 92.1715 36.4536 92.7197 38.2026C93.5115 40.7802 94.3337 43.3577 94.9733 45.9966C95.2169 47.0092 95.0037 48.1445 94.9428 49.2185C94.8819 49.8936 94.8514 50.5686 94.2424 51.121C93.8769 51.4585 93.8465 52.1642 93.6637 52.6859C93.6333 52.5631 93.5724 52.4404 93.5115 52.287C93.4201 52.287 93.3592 52.3177 93.2983 52.3483C93.4506 53.0234 93.6333 53.6985 93.8465 54.527" fill="#00642B"/>
<path d="M5.63965 70.2766H9.13281V75.1233C8.60872 75.301 8.06868 75.4332 7.5127 75.5198C6.96126 75.6064 6.34375 75.6497 5.66016 75.6497C4.62109 75.6497 3.74382 75.4423 3.02832 75.0276C2.31738 74.6129 1.77734 74.0227 1.4082 73.2571C1.03906 72.4869 0.854492 71.5732 0.854492 70.5159C0.854492 69.4814 1.05729 68.579 1.46289 67.8088C1.87305 67.0387 2.46322 66.4417 3.2334 66.0178C4.00814 65.5894 4.93783 65.3752 6.02246 65.3752C6.57845 65.3752 7.10482 65.4277 7.60156 65.5325C8.10286 65.6327 8.56771 65.7763 8.99609 65.9631L8.55176 66.9749C8.18262 66.8153 7.77474 66.6786 7.32812 66.5647C6.88607 66.4508 6.42806 66.3938 5.9541 66.3938C5.13835 66.3938 4.4388 66.5624 3.85547 66.8997C3.27669 67.2369 2.83236 67.7131 2.52246 68.3284C2.21712 68.9436 2.06445 69.6728 2.06445 70.5159C2.06445 71.3499 2.19889 72.0767 2.46777 72.6965C2.73665 73.3118 3.15592 73.7903 3.72559 74.1321C4.29525 74.4739 5.02897 74.6448 5.92676 74.6448C6.37793 74.6448 6.7653 74.6197 7.08887 74.5696C7.41243 74.5149 7.70638 74.4511 7.9707 74.3782V71.3157H5.63965V70.2766ZM17.8213 75.5129L16.5908 72.3411H12.585L11.3613 75.5129H10.1855L14.0957 65.4778H15.1416L19.0244 75.5129H17.8213ZM16.2422 71.3088L15.0732 68.1575C15.0459 68.0754 15.0003 67.941 14.9365 67.7542C14.8773 67.5673 14.8158 67.3736 14.752 67.1731C14.6882 66.9726 14.6357 66.8108 14.5947 66.6877C14.5492 66.8746 14.499 67.0614 14.4443 67.2483C14.3942 67.4306 14.3441 67.6015 14.2939 67.761C14.2438 67.9159 14.2005 68.0481 14.1641 68.1575L12.9746 71.3088H16.2422ZM28.3486 70.4202C28.3486 71.5458 28.1436 72.4869 27.7334 73.2434C27.3232 73.9954 26.7285 74.5627 25.9492 74.9456C25.1745 75.3238 24.2334 75.5129 23.126 75.5129H20.4121V65.5188H23.4268C24.443 65.5188 25.318 65.7056 26.0518 66.0793C26.7855 66.4485 27.3506 66.9976 27.7471 67.7268C28.1481 68.4514 28.3486 69.3492 28.3486 70.4202ZM27.125 70.4612C27.125 69.5634 26.9746 68.8228 26.6738 68.2395C26.3776 67.6562 25.9401 67.2232 25.3613 66.9407C24.7871 66.6536 24.083 66.51 23.249 66.51H21.5742V74.5149H22.9893C24.3656 74.5149 25.3978 74.1754 26.0859 73.4963C26.7786 72.8173 27.125 71.8056 27.125 70.4612ZM39.2383 70.5022C39.2383 71.2724 39.1403 71.9742 38.9443 72.6077C38.7484 73.2366 38.4567 73.7789 38.0693 74.2346C37.6865 74.6858 37.2103 75.0344 36.6406 75.2805C36.071 75.5266 35.4102 75.6497 34.6582 75.6497C33.8835 75.6497 33.2067 75.5266 32.6279 75.2805C32.0537 75.0344 31.5752 74.6835 31.1924 74.2278C30.8141 73.7721 30.5293 73.2275 30.3379 72.594C30.151 71.9605 30.0576 71.2587 30.0576 70.4885C30.0576 69.4677 30.2262 68.5722 30.5635 67.802C30.9007 67.0318 31.4111 66.4325 32.0947 66.0042C32.7829 65.5758 33.6442 65.3616 34.6787 65.3616C35.6676 65.3616 36.4993 65.5735 37.1738 65.9973C37.8529 66.4211 38.3656 67.0181 38.7119 67.7883C39.0628 68.554 39.2383 69.4586 39.2383 70.5022ZM31.2812 70.5022C31.2812 71.3499 31.402 72.0836 31.6436 72.7034C31.8851 73.3232 32.2542 73.8017 32.751 74.1389C33.2523 74.4762 33.888 74.6448 34.6582 74.6448C35.4329 74.6448 36.0664 74.4762 36.5586 74.1389C37.0553 73.8017 37.4222 73.3232 37.6592 72.7034C37.8962 72.0836 38.0146 71.3499 38.0146 70.5022C38.0146 69.2125 37.7435 68.2053 37.2012 67.4807C36.6634 66.7515 35.8226 66.387 34.6787 66.387C33.904 66.387 33.266 66.5533 32.7646 66.886C32.2633 67.2187 31.8896 67.6926 31.6436 68.3079C31.402 68.9185 31.2812 69.65 31.2812 70.5022ZM40.6602 72.259V71.2473H44.0508V72.259H40.6602ZM53.915 70.4202C53.915 71.5458 53.71 72.4869 53.2998 73.2434C52.8896 73.9954 52.2949 74.5627 51.5156 74.9456C50.7409 75.3238 49.7998 75.5129 48.6924 75.5129H45.9785V65.5188H48.9932C50.0094 65.5188 50.8844 65.7056 51.6182 66.0793C52.3519 66.4485 52.917 66.9976 53.3135 67.7268C53.7145 68.4514 53.915 69.3492 53.915 70.4202ZM52.6914 70.4612C52.6914 69.5634 52.541 68.8228 52.2402 68.2395C51.944 67.6562 51.5065 67.2232 50.9277 66.9407C50.3535 66.6536 49.6494 66.51 48.8154 66.51H47.1406V74.5149H48.5557C49.932 74.5149 50.9642 74.1754 51.6523 73.4963C52.3451 72.8173 52.6914 71.8056 52.6914 70.4612ZM61.7012 75.5129H56.1367V65.5188H61.7012V66.5442H57.2988V69.7776H61.4482V70.7893H57.2988V74.4875H61.7012V75.5129ZM63.1094 72.259V71.2473H66.5V72.259H63.1094ZM72.7002 66.4006C72.1488 66.4006 71.652 66.4963 71.21 66.6877C70.7725 66.8746 70.3988 67.148 70.0889 67.5081C69.7835 67.8635 69.5488 68.2942 69.3848 68.8C69.2207 69.3059 69.1387 69.8756 69.1387 70.509C69.1387 71.3476 69.2686 72.0767 69.5283 72.6965C69.7926 73.3118 70.1846 73.788 70.7041 74.1252C71.2282 74.4625 71.8822 74.6311 72.666 74.6311C73.1126 74.6311 73.5319 74.5946 73.9238 74.5217C74.3203 74.4443 74.7054 74.3486 75.0791 74.2346V75.2463C74.7145 75.3831 74.3317 75.4833 73.9307 75.5471C73.5296 75.6155 73.0534 75.6497 72.502 75.6497C71.4857 75.6497 70.6357 75.44 69.9521 75.0208C69.2731 74.5969 68.7627 73.9999 68.4209 73.2297C68.0837 72.4596 67.915 71.5504 67.915 70.5022C67.915 69.7457 68.0199 69.0553 68.2295 68.4309C68.4437 67.802 68.7536 67.2597 69.1592 66.804C69.5693 66.3482 70.0706 65.9973 70.6631 65.7512C71.2601 65.5006 71.9437 65.3752 72.7139 65.3752C73.2197 65.3752 73.7074 65.4254 74.1768 65.5256C74.6462 65.6259 75.07 65.7694 75.4482 65.9563L74.9834 66.9407C74.6644 66.7948 74.3135 66.6695 73.9307 66.5647C73.5524 66.4553 73.1423 66.4006 72.7002 66.4006ZM85.9141 70.5022C85.9141 71.2724 85.8161 71.9742 85.6201 72.6077C85.4242 73.2366 85.1325 73.7789 84.7451 74.2346C84.3623 74.6858 83.8861 75.0344 83.3164 75.2805C82.7467 75.5266 82.0859 75.6497 81.334 75.6497C80.5592 75.6497 79.8825 75.5266 79.3037 75.2805C78.7295 75.0344 78.251 74.6835 77.8682 74.2278C77.4899 73.7721 77.2051 73.2275 77.0137 72.594C76.8268 71.9605 76.7334 71.2587 76.7334 70.4885C76.7334 69.4677 76.902 68.5722 77.2393 67.802C77.5765 67.0318 78.0869 66.4325 78.7705 66.0042C79.4587 65.5758 80.32 65.3616 81.3545 65.3616C82.3434 65.3616 83.1751 65.5735 83.8496 65.9973C84.5286 66.4211 85.0413 67.0181 85.3877 67.7883C85.7386 68.554 85.9141 69.4586 85.9141 70.5022ZM77.957 70.5022C77.957 71.3499 78.0778 72.0836 78.3193 72.7034C78.5609 73.3232 78.93 73.8017 79.4268 74.1389C79.9281 74.4762 80.5638 74.6448 81.334 74.6448C82.1087 74.6448 82.7422 74.4762 83.2344 74.1389C83.7311 73.8017 84.098 73.3232 84.335 72.7034C84.5719 72.0836 84.6904 71.3499 84.6904 70.5022C84.6904 69.2125 84.4193 68.2053 83.877 67.4807C83.3392 66.7515 82.4984 66.387 81.3545 66.387C80.5798 66.387 79.9417 66.5533 79.4404 66.886C78.9391 67.2187 78.5654 67.6926 78.3193 68.3079C78.0778 68.9185 77.957 69.65 77.957 70.5022ZM90.8428 65.5188C91.6631 65.5188 92.3398 65.6213 92.873 65.8264C93.4108 66.0269 93.8118 66.3346 94.0762 66.7493C94.3405 67.164 94.4727 67.6926 94.4727 68.3352C94.4727 68.8639 94.377 69.3059 94.1855 69.6614C93.9941 70.0123 93.7435 70.2971 93.4336 70.5159C93.1237 70.7346 92.7933 70.9032 92.4424 71.0217L95.1836 75.5129H93.8301L91.3828 71.343H89.3047V75.5129H88.1426V65.5188H90.8428ZM90.7744 66.5237H89.3047V70.3586H90.8906C91.7064 70.3586 92.3057 70.1923 92.6885 69.8596C93.0758 69.5269 93.2695 69.037 93.2695 68.3899C93.2695 67.7109 93.0645 67.2301 92.6543 66.9475C92.2487 66.665 91.6221 66.5237 90.7744 66.5237ZM99.8525 75.5129H98.6836V66.5442H95.5391V65.5188H102.983V66.5442H99.8525V75.5129ZM110.059 75.5129H104.494V65.5188H110.059V66.5442H105.656V69.7776H109.806V70.7893H105.656V74.4875H110.059V75.5129Z" fill="#00642B"/>
</svg>
