<svg width="116" height="80" viewBox="0 0 116 80" fill="none" xmlns="http://www.w3.org/2000/svg">
<path d="M86.4658 8.18821C86.4658 8.18821 86.2651 7.78683 85.6229 7.26503C84.0573 5.94048 83.0538 4.97717 82.5721 4.45538C82.3312 4.45538 82.1305 4.3751 81.8896 4.33496C82.5319 4.89689 83.1341 5.41869 83.6559 5.8602C85.0609 7.10448 86.3053 8.14807 86.4658 8.14807" fill="#00642B"/>
<path d="M96.7021 12.804L97.6655 13.4864L96.6218 13.366C96.0598 13.2857 95.2168 12.9646 94.7351 12.6033L93.8921 11.9611L94.8154 12.0414C95.3372 12.0815 96.1802 12.4428 96.7021 12.804ZM88.5131 8.06774L87.3891 7.14457L89.5969 7.66636C90.8012 7.94733 92.1259 8.22829 92.5273 8.26843C92.9287 8.26843 93.0893 8.38884 92.8886 8.46912C92.3266 8.66981 92.6477 9.1916 94.0928 10.3957L95.4175 11.4795H93.9323L92.447 11.5196L94.695 13.1653C96.983 14.8109 99.1507 15.4531 99.4317 14.6102C99.512 14.3694 99.6726 14.2891 99.8331 14.4095C100.315 14.8912 100.034 15.3729 99.231 15.413H98.4282L99.2711 15.8545C99.7528 16.0552 100.516 16.4566 100.997 16.6974C101.479 16.9382 102.161 17.2995 102.523 17.5002C102.964 17.741 103.165 17.7009 103.044 17.3797C102.964 17.1389 103.044 16.9382 103.165 16.9382C103.325 16.9382 103.446 17.2593 103.446 17.5804C103.446 17.9015 103.606 18.1825 103.807 18.2226C104.008 18.2226 104.65 18.4233 105.172 18.5839L106.135 18.905L105.292 18.2628C104.811 17.9015 103.727 17.0586 102.804 16.3763C101.921 15.694 101.078 15.1722 100.917 15.2524C100.797 15.3327 100.475 15.0116 100.235 14.53C99.9535 14.0082 99.5521 13.7272 99.231 13.7673C98.9099 13.8476 98.6289 13.6469 98.5486 13.2857C98.4683 12.9646 98.2676 12.804 98.107 12.8843C97.9465 12.9646 97.826 12.8843 97.826 12.6836C97.826 12.4428 97.6655 12.2421 97.4648 12.202C97.2239 12.202 96.9028 11.8808 96.7422 11.5196C96.5816 11.1584 96.3006 10.9577 96.1802 11.0379C96.0598 11.1182 95.7788 10.9175 95.6182 10.5563C95.4175 10.1951 95.1365 9.91409 94.8957 9.87395C94.695 9.87395 94.1731 9.39229 93.7315 8.83036C93.009 7.86705 91.4435 6.50236 89.7575 5.17781C89.6772 5.17781 89.5969 5.09753 89.5568 5.09753C88.9948 4.89684 88.3927 4.81656 87.7504 4.73629C87.7504 4.73629 87.7504 4.77643 87.7504 4.81656C87.8307 5.17781 88.1518 5.49891 88.4328 5.53905C88.7539 5.53905 89.1554 5.90029 89.3159 6.26153C89.5969 6.82346 89.5568 6.8636 88.9547 6.46222C88.5934 6.22139 87.4694 5.77988 86.506 5.53905C85.0207 5.09753 84.4186 4.8567 84.4588 4.57574C84.0573 4.57574 83.6158 4.49546 83.2144 4.45532C83.6961 4.77643 84.3785 5.29822 85.2215 5.94043C88.1117 8.22829 90.6406 9.79367 88.4328 7.98746" fill="#00642B"/>
<path d="M93.6111 10.6364C92.6878 9.99418 89.7976 9.2717 90.3195 9.79349C90.5603 10.0343 91.5237 10.3956 92.4871 10.6364C93.6513 10.9174 94.0125 10.9174 93.6111 10.6364Z" fill="#00642B"/>
<path d="M90.761 11.2789C86.1045 7.42563 85.4221 7.30522 89.637 11.1183C92.166 13.4062 94.1329 14.8512 99.2711 18.2629C103.004 20.7113 110.752 23.6414 115.529 24.4441C115.529 24.1632 115.569 23.8822 115.609 23.6012C114.686 23.3604 113.682 23.1196 112.759 22.8788C108.062 21.7147 105.694 20.7514 100.796 17.8615C94.6548 14.2892 93.5709 13.5667 90.8011 11.2387" fill="#00642B"/>
<path d="M43.4336 7.58602C45.8823 7.4656 44.9991 7.10436 41.7476 6.90367C39.7807 6.78326 38.4961 6.90367 38.2553 7.18464C37.8539 7.66629 39.3793 7.74657 43.4336 7.58602Z" fill="#00642B"/>
<path d="M75.1057 29.4211C76.1494 29.5415 76.5909 29.5415 76.0691 29.381C75.5472 29.2204 74.7042 29.1401 74.1423 29.1401C73.6204 29.1401 74.0218 29.3007 75.1057 29.4211Z" fill="#00642B"/>
<path d="M4.45576 14.6102C4.45576 14.6102 4.29519 14.6102 4.25505 14.6102C4.17476 14.4898 4.25505 14.4497 4.45576 14.6102ZM3.57263 13.0448C4.37547 13.1653 5.2586 13.968 4.53604 13.8877C4.2149 13.8877 3.77334 13.6469 3.53249 13.4061C3.17121 13.0047 3.17121 12.9646 3.53249 13.0448M5.66001 14.0082C5.66001 14.0082 6.10158 13.968 6.18186 14.1687C6.18186 14.249 6.26214 14.3293 6.38257 14.4095C6.18186 14.4095 5.98115 14.4095 5.82058 14.4095C5.57973 14.1687 5.57973 14.0483 5.70016 13.968M7.54669 12.9646C7.30583 12.2019 2.93036 7.34525 2.4888 7.30511C2.28809 7.30511 2.24795 7.10442 2.36837 6.90373C2.93036 5.90028 5.66001 6.90373 6.66356 8.38884C7.22555 9.23173 8.26924 10.476 9.03194 11.1584C9.79464 11.8808 10.3968 12.5632 10.3968 12.7237C10.3968 12.8843 10.5975 13.0448 10.8785 13.085C11.2799 13.1251 11.2397 13.2455 10.6376 13.6068C9.99535 13.968 9.75449 13.9279 8.95165 13.4061C7.86782 12.6435 7.50654 12.523 7.82768 13.085C8.02839 13.4061 8.59038 13.8476 9.27279 14.3293C9.11222 14.3293 8.95166 14.3293 8.75095 14.3293C8.06853 13.7673 7.58683 13.2455 7.50654 12.9646M7.54669 6.70304C8.2291 6.78332 8.67066 7.02415 8.55024 7.1847C8.42981 7.34525 9.35307 8.42897 10.5172 9.5127C12.2032 11.0781 12.5243 11.5196 12.0024 11.5597C11.6412 11.5597 11.32 11.7604 11.32 11.9611C11.32 12.4428 11.6412 12.4829 12.5644 12.1217C13.0461 11.921 13.4877 12.0414 13.9694 12.523C14.6518 13.1653 14.6117 13.1653 13.568 12.8442C12.9659 12.6435 12.4841 12.6836 12.444 12.8442C12.444 13.2857 11.5207 12.7639 11.1595 12.1217C10.7982 11.5196 7.98825 8.70994 7.70725 8.6698C7.58683 8.6698 7.42626 8.3487 7.34598 8.02759C7.26569 7.70649 7.06498 7.42553 6.86427 7.46566C6.66356 7.46566 6.46285 7.30511 6.42271 7.02415C6.34243 6.6629 6.70371 6.54249 7.54669 6.6629M7.18541 3.81311C7.50654 3.57228 7.50654 3.53214 7.10513 3.61242C6.82413 3.69269 6.30229 3.25118 5.86072 2.48855C5.45931 1.80621 5.21845 1.24428 5.33888 1.24428C5.7403 1.28442 7.34598 2.76952 8.02839 3.69269C8.67066 4.57573 8.67066 4.57573 8.55024 3.81311C8.44319 3.27793 8.55024 3.29131 8.87137 3.85325C9.11222 4.3349 9.63407 4.93697 10.0355 5.21794C10.7179 5.73973 10.7179 5.73973 9.63407 5.90028C8.30938 6.06083 6.42271 4.37504 7.22555 3.73283M13.3271 9.63311C14.6117 10.7168 14.9328 11.1985 14.411 11.1182C14.2504 11.1182 12.9658 10.1549 11.5207 8.99091C8.91151 6.90373 8.91151 6.90373 10.1158 7.02415C10.8785 7.10442 11.4405 7.42552 11.6813 7.8269C11.882 8.18815 12.6447 8.99091 13.3673 9.63311M14.2504 7.58608C15.1737 7.86704 16.4582 8.22828 17.1005 8.38884C17.7427 8.54939 19.509 9.11132 20.9942 9.67325C22.8408 10.3556 24.326 10.6767 25.6908 10.6767C26.7747 10.6767 28.4205 10.6767 29.424 10.6767C31.5516 10.757 36.208 10.5964 37.4926 10.3957C38.0546 10.3155 38.4961 10.4359 38.5764 10.7168C38.6567 10.9577 38.8574 11.1182 39.018 10.9978C39.1785 10.9175 39.3391 10.9978 39.4194 11.1584C39.4997 11.3189 38.9778 11.7203 38.2553 12.0013L36.9707 12.523L37.7736 11.8407C38.7771 10.9577 38.4961 10.9175 34.0805 11.2386C28.7416 11.64 21.8372 10.8774 19.3886 9.63311C18.3047 9.07118 17.1808 8.58953 16.9399 8.58953C16.3378 8.58953 19.1477 10.7971 19.79 10.8774C20.071 10.8774 20.352 11.1584 20.4724 11.4393C20.5928 11.7203 20.5125 11.8006 20.352 11.5999C20.1914 11.4393 19.3484 11.1985 18.5054 11.0781C16.6991 10.8373 14.8927 9.99436 14.4912 9.1916C14.0497 8.3487 14.692 8.50925 16.0166 9.67325C16.6188 10.195 17.3012 10.5563 17.5019 10.5161C18.1843 10.3155 16.0166 8.79022 14.5715 8.46911C13.7687 8.30856 13.006 8.02759 12.8454 7.86704C12.6849 7.70649 12.5644 7.8269 12.5243 8.06773C12.5243 8.46911 12.4039 8.46911 12.163 8.06773C11.601 7.1847 12.444 6.94387 14.2504 7.54594M24.607 9.67325C25.0486 9.67325 25.731 9.71339 26.0923 9.87394C26.4535 9.99436 26.0923 10.0345 25.2493 9.95422C24.4464 9.87394 24.1655 9.75353 24.607 9.71339M26.8148 6.70304C27.0557 6.54249 28.0592 6.3418 28.9825 6.30166C30.7086 6.22139 31.3509 6.54249 29.8255 6.74318C27.7381 7.02415 26.3331 6.98401 26.7747 6.70304M24.4866 6.18125C23.9246 6.26152 23.8443 6.22139 24.2056 5.94042C24.4866 5.73973 25.3697 5.53904 26.2528 5.4989C28.0994 5.37849 28.3001 5.73973 26.4937 5.94042C25.8113 6.0207 24.888 6.10097 24.4866 6.18125ZM28.0592 4.3349C28.2599 4.13421 28.5811 4.0138 28.7416 4.13421C29.1832 4.37504 28.7416 4.85669 28.1395 4.81656C27.8184 4.81656 27.7782 4.656 28.0592 4.37504M31.3107 6.90373C31.5917 6.82346 32.0734 6.90373 32.3544 7.02415C32.6354 7.14456 32.3946 7.22483 31.8326 7.14456C31.2706 7.06428 31.0297 6.98401 31.3509 6.90373M35.7263 7.70649C36.0073 7.70649 36.2482 7.90718 36.208 8.10787C36.208 8.46911 34.6826 8.79022 33.8397 8.62966C33.2375 8.50925 35.0038 7.66635 35.7263 7.70649ZM35.0439 5.01725C35.2848 4.73628 35.8468 4.53559 36.2482 4.57573C37.051 4.656 37.5729 4.09407 37.0109 3.77297C36.5292 3.45187 40.9046 2.28786 42.4702 2.28786C43.1526 2.28786 44.4371 2.12731 45.3203 1.88648C46.2034 1.64566 48.2506 1.48511 49.9366 1.56538C51.9437 1.64566 52.8669 1.56538 52.6261 1.28442C52.3451 0.963311 52.3852 0.963311 52.7867 1.164C53.0677 1.32455 53.6296 1.32455 54.0311 1.164C55.1952 0.722484 54.874 1.44497 53.6698 2.04704C52.9472 2.40828 51.8634 2.48855 50.4183 2.328C49.214 2.16745 47.0062 2.28786 45.4808 2.52869C43.9554 2.76952 42.5906 2.88993 42.5103 2.76952C42.2695 2.52869 39.7807 3.45187 39.1384 4.05394C38.8574 4.29476 38.456 4.49545 38.2151 4.45532C37.9743 4.45532 37.4926 4.656 37.0912 4.93697C36.1278 5.69959 34.4016 5.77987 35.0841 5.05738M48.7725 3.33145L47.9696 2.76952L48.8528 3.05049C49.3345 3.21104 49.9767 3.1709 50.2979 3.01035C50.619 2.80966 50.9 2.76952 50.9803 2.8498C51.3416 3.41173 49.5352 3.81311 48.8126 3.33145M56.841 5.41863C57.403 5.25807 58.527 5.09752 59.3298 5.09752C60.1326 5.09752 61.096 4.93697 61.4975 4.77642C61.8989 4.61587 63.344 4.49545 64.7088 4.53559C67.9603 4.57573 67.8399 4.53559 77.1528 11.8407C80.0029 14.0884 82.8931 16.3362 83.4953 16.7777C84.0974 17.2192 85.7031 18.4635 87.0277 19.4669C90.4398 22.116 90.2792 21.9956 93.5709 23.7617C97.7858 26.0094 98.3076 26.2502 100.636 27.0129C100.917 27.0931 101.278 27.2135 101.639 27.2938C100.877 27.4142 100.154 27.5748 99.3915 27.6952C98.5083 27.2938 97.5449 26.8523 96.9829 26.6516C92.5272 24.8053 88.1517 22.1963 85.8636 20.0288C85.3418 19.5071 84.8199 19.1458 82.1304 17.2593C80.9262 16.4164 80.0029 15.5735 80.1233 15.3728C80.2036 15.2123 80.1233 15.132 79.8423 15.2123C79.6015 15.2926 79.1599 14.9715 78.8388 14.4898C78.5177 14.0082 78.1564 13.6469 77.9958 13.7673C77.8352 13.8877 77.6747 13.687 77.5944 13.4061C77.5141 13.085 77.1127 12.6836 76.6711 12.4829C76.2296 12.2822 75.6676 11.8407 75.4669 11.5196C74.9852 10.8373 70.69 7.8269 68.6026 6.70304C66.7962 5.73973 64.187 5.41863 61.9792 5.86014C58.2058 6.62277 53.2282 6.42208 50.7796 5.29821C49.3746 4.69614 47.4076 4.17435 45.6013 3.97366C43.4737 3.73283 42.992 3.57228 43.8752 3.492C45.802 3.25118 48.4915 3.69269 50.338 4.53559C52.3852 5.45876 55.4762 5.94042 56.9614 5.4989M52.9472 4.17435C53.6698 3.93352 54.1515 3.97366 54.3121 4.25462C54.4726 4.53559 54.1113 4.69614 53.3085 4.77642C51.7028 4.93697 51.5021 4.61587 52.9472 4.17435ZM56.1184 2.68924C56.6403 2.44842 57.4431 2.56883 58.808 3.05049C62.4609 4.3349 61.2165 4.656 57.0819 3.53214C55.5163 3.09062 55.3959 3.01035 56.1184 2.72938M58.0453 2.08717C58.527 1.24428 61.4975 1.08373 62.501 1.88648C62.9827 2.28786 63.9863 2.80966 64.6285 3.01035C65.311 3.25118 65.9131 3.57228 65.9934 3.77297C66.1539 4.21449 66.4751 4.29476 62.8221 3.13076C61.1362 2.60897 59.2897 2.24773 58.7678 2.28786C58.1255 2.36814 57.8847 2.28786 58.0453 2.0069M63.5848 0.963311C64.6285 0.802759 64.9095 0.963311 66.9568 2.48855C68.6026 3.73283 70.0076 4.49545 69.4054 3.85325C69.0843 3.492 69.0843 3.41173 69.4456 3.29131C69.6864 3.21104 69.4054 2.80966 68.7632 2.36814C67.5188 1.4851 67.3582 1.40483 67.5589 1.92662C67.6392 2.12731 67.3582 2.16745 66.9969 2.0069C64.7088 1.12386 66.6356 1.04359 69.7667 1.92662C70.0878 2.0069 70.1681 2.24773 70.0477 2.93007C69.9674 3.45187 70.7703 3.93352 71.9344 4.09407C74.383 4.41518 78.7986 6.94387 82.572 10.1549C85.1009 12.3224 83.4551 11.64 80.5649 9.31201C77.6345 6.98401 74.5436 5.37849 71.6935 4.73628C70.1681 4.37504 69.9674 4.41518 70.5294 4.81656C72.5365 6.26152 80.324 12.4829 80.6452 12.9244C81.3677 13.8075 84.3382 15.9749 87.9912 18.2628C89.9581 19.4669 92.5673 21.1126 93.8117 21.8752C95.9794 23.1997 96.2203 23.561 94.8956 23.1997C94.3336 23.0392 91.4434 21.4337 90.3194 20.6309C89.9983 20.3901 88.794 19.5873 87.6299 18.7846C84.5791 16.7777 77.3937 11.5999 76.8718 11.0781C75.3063 9.47256 66.7561 3.33145 64.3074 2.0069C62.6616 1.12386 62.6214 1.08373 63.5447 0.963311M85.4221 12.5632C85.8235 12.6435 86.3052 12.8843 86.4658 13.085C86.6263 13.2857 86.827 13.2857 86.9073 13.085C86.9876 12.9244 87.3489 13.085 87.7102 13.4061C88.3123 13.968 88.1116 13.968 85.9439 13.4462C84.5791 13.1251 83.2143 12.8442 82.853 12.8442C82.0501 12.8442 79.2402 11.359 79.2804 10.9577C79.2804 10.7971 78.5177 10.0345 77.5542 9.27187C76.5106 8.46911 75.9887 7.86704 76.3098 7.8269C76.9923 7.70649 79.6818 9.71339 79.6416 10.3155C79.6416 10.7168 82.6121 11.8808 85.4221 12.523M91.6842 17.3396C98.3478 21.8752 103.687 24.2835 111.033 25.889C109.909 25.889 108.745 26.0495 107.701 26.2101C107.299 26.2502 106.938 26.3305 106.537 26.4108C103.446 25.7284 101.72 25.0862 102.683 24.8454C103.366 24.6849 103.325 24.6447 102.282 24.2835C101.639 24.0828 101.077 23.9624 100.997 24.0426C100.917 24.1229 101.077 24.2433 101.318 24.2835C101.599 24.2835 101.8 24.5243 101.8 24.725C101.8 25.2468 99.1506 23.6814 98.7492 22.8786C98.5886 22.5174 98.0668 22.1963 97.6252 22.1562C96.5815 22.0759 94.9357 21.1527 94.9759 20.7112C94.9759 20.5105 94.8153 20.4302 94.5343 20.5506C94.2934 20.6309 94.0927 20.5506 94.0927 20.2697C94.0927 20.0288 94.0124 19.9084 93.8519 19.9887C93.6913 20.1091 93.5307 20.0288 93.4906 19.8683C93.4906 19.6676 92.2462 18.624 90.8011 17.5002C87.2686 14.7306 87.7503 14.6504 91.6842 17.3396ZM15.4145 14.0483C16.7793 14.2088 16.4983 14.7708 15.0934 14.6504C14.2504 14.5701 13.9293 14.4497 14.1701 14.249C14.411 14.0884 14.9328 14.0082 15.3744 14.0483M19.1477 14.0884C18.7061 14.0483 18.3047 13.8075 18.2244 13.5666C18.104 13.2857 18.3449 13.2455 18.8667 13.4864C19.9505 13.968 20.071 14.1687 19.1477 14.0884ZM34.0805 13.2054C32.1938 13.3659 26.3733 13.1251 26.3733 12.8843C26.3733 12.7639 28.0994 12.6435 30.1867 12.6435C34.1207 12.6435 36.6496 12.9646 34.0805 13.2054ZM39.6602 12.5632C40.0215 12.6033 40.3427 12.4829 40.4229 12.2822C40.5032 12.0815 40.9046 12.0815 41.3462 12.2421C42.6308 12.7237 42.2293 13.1251 39.9412 13.4864C38.737 13.687 37.4926 13.9279 37.1714 14.0483C36.8503 14.1687 37.1313 13.8476 37.8137 13.3659C38.4961 12.8843 39.3391 12.523 39.7004 12.5632M73.0985 12.5632C72.1351 11.0379 65.3912 8.3487 62.1397 8.22828C52.4254 7.78677 47.8091 7.74663 47.7689 8.02759C47.7689 8.18815 47.5281 8.30856 47.2471 8.26842C46.8858 8.22828 47.0062 8.02759 47.6485 7.58608C48.652 6.90373 54.2719 6.90373 62.782 7.5058C66.9969 7.8269 67.4385 7.98746 71.3724 10.757C72.7372 11.7203 73.821 12.6435 73.821 12.804C73.821 13.2455 73.3795 13.1251 73.0584 12.6033M93.8519 28.7789C91.0821 27.6551 85.7432 24.3637 82.4516 21.7949C80.9663 20.6309 79.0796 19.1458 78.2367 18.5036C77.3937 17.8614 75.7479 16.577 74.5837 15.6939C70.0878 12.1618 67.8399 11.1985 61.7383 10.195C56.2389 9.27187 53.2684 9.47256 48.9732 11.1584C46.5647 12.0815 46.1632 12.1618 45.1196 11.64C44.4773 11.3189 43.7949 11.1584 43.554 11.2386C43.3132 11.3189 42.8315 11.2386 42.5103 10.9577L41.8681 10.5161H42.5505C43.5139 10.6366 43.6343 10.5964 43.9956 10.0746C44.5174 9.35215 46.6449 8.18815 46.6048 8.6698C46.6048 8.95077 47.0865 9.07118 48.0499 9.03104C48.8528 9.03104 49.5352 9.11132 49.5352 9.31201C49.5352 9.5127 48.2908 9.71339 46.8457 9.8338C45.3604 9.91408 44.1561 10.1549 44.1561 10.3155C44.116 11.1182 45.6013 11.1584 48.2506 10.3155C60.1326 6.78332 66.8363 8.46911 79.0796 18.0219C81.3677 19.8282 84.1777 21.7949 85.2615 22.397C86.3453 22.9991 87.5094 23.6814 87.8306 23.9222C88.5531 24.444 91.7244 26.0897 92.2863 26.2101C92.5272 26.2502 92.8483 26.4509 93.0089 26.5713C93.4103 26.9727 94.8554 27.5748 96.8224 28.217C95.859 28.4177 94.8956 28.5782 93.9322 28.7789M34.8432 20.7112C34.8432 20.7112 34.9636 20.952 34.9636 20.9922C34.5622 20.7915 34.1207 20.6309 33.7192 20.4302C34.4016 20.4302 34.7228 20.4704 34.8432 20.6711M45.0393 14.4095C44.678 14.3694 44.397 14.5299 44.3569 14.7306C44.3569 14.9715 44.1963 15.0116 44.0759 14.8912C43.9153 14.7306 42.7913 14.9715 41.5871 15.3728C39.58 16.0552 34.7228 17.5403 34.4819 17.5002C33.7594 17.4199 34.8432 16.6974 36.2883 16.3362C37.332 16.0953 38.4961 15.5735 38.9778 15.2123C39.4194 14.851 40.9448 14.2891 42.3899 13.968C44.4773 13.4864 45.0794 13.4864 45.3604 13.9279C45.6414 14.3293 45.5611 14.4497 45.0393 14.3694M48.6119 15.6137C49.9366 15.3327 51.5021 15.0116 52.0641 14.8511C52.6261 14.7306 54.4726 14.5701 56.0783 14.5299C57.7241 14.4898 59.9721 14.6102 61.096 14.8511L63.1433 15.2524L61.377 15.132C54.9945 14.6504 46.2435 16.3362 37.894 19.6275C37.1313 19.9084 36.8503 19.9084 36.6496 19.5071C36.489 19.2261 36.4489 19.0655 36.5292 19.186C36.6897 19.3465 40.5032 18.0621 42.5906 17.1791C43.5139 16.7777 44.2364 16.577 48.6119 15.6538M43.6744 23.4004C44.0759 23.4406 44.3569 23.3202 44.2364 23.0793C44.1561 22.8385 44.2364 22.678 44.397 22.678C45.0794 22.7582 44.5977 23.8821 43.7949 24.0426C43.3934 24.1229 42.9519 24.3236 42.711 24.4842C42.3498 24.3236 41.9885 24.1631 41.6272 24.0025C41.7878 23.6011 42.711 23.28 43.6744 23.4004ZM87.3489 29.9028C87.3489 29.9028 87.2285 29.8627 87.1482 29.9028C86.9475 29.9028 86.4658 29.6218 86.0643 29.2204C84.7798 27.8558 82.853 26.0897 82.3713 25.8087C82.0903 25.6482 81.8896 25.3672 81.8896 25.2066C81.8896 24.8454 83.9368 26.2904 85.8636 28.0163C86.3855 28.498 87.3087 29.2606 88.0714 29.8225C87.8306 29.8225 87.6299 29.9028 87.389 29.9429M78.3169 28.1769C77.3535 27.9762 76.3901 27.6952 76.1493 27.5748C72.5365 25.3271 67.7998 23.7617 62.3806 23.0793C59.4502 22.7181 58.1657 22.4371 59.0087 22.3569C61.6982 22.116 66.5554 22.9188 69.8871 24.1229C75.3866 26.1298 80.4846 28.5782 78.3169 28.1367M80.2839 30.9062C79.2402 30.6654 78.0761 30.4246 76.7514 30.2239C71.0513 29.1803 69.3251 29.0599 69.566 29.7021C69.6463 29.9028 69.1646 29.8627 68.5223 29.7021C67.7596 29.4613 67.3582 29.5014 67.3181 29.7824C67.3181 30.0232 67.1173 30.1035 66.8765 29.9429C66.6758 29.7824 65.8328 29.9028 65.0701 30.1436C63.1433 30.7858 62.6616 30.5851 64.2673 29.8627C68.442 27.936 75.3464 28.2973 82.8128 30.6253C81.9297 30.7457 81.0867 30.8661 80.2036 30.9464M64.9095 31.1872C64.9095 31.1872 65.2307 31.0668 65.5919 30.9865C66.7159 30.826 68.0005 31.1069 67.9202 31.3879C66.9166 31.3478 65.8729 31.2675 64.8694 31.1471M58.0051 28.9796C59.9319 28.8993 61.4975 28.9796 61.4975 29.1C61.4975 29.5415 59.8516 29.9028 57.9248 29.9831C56.9614 29.7422 56.0382 29.5014 55.1149 29.2204C56.0783 29.1 57.0819 28.9796 58.0051 28.9395M55.0346 26.7319C55.3156 26.7319 56.1184 26.7319 56.7607 26.7319C57.403 26.7319 60.0122 26.8924 62.501 27.053C65.1102 27.2537 67.2378 27.5748 67.4786 27.8156C67.7596 28.0966 67.4385 28.1769 66.3546 28.0564C65.5117 27.9762 64.749 28.0564 64.6285 28.2571C64.5081 28.498 64.187 28.4578 63.7856 28.1367C63.3841 27.8558 61.5778 27.6149 58.9284 27.4544C56.6002 27.334 54.6332 27.1333 54.5931 26.9326C54.5128 26.772 54.7135 26.6516 54.9945 26.6516M55.7973 22.5977C56.0783 22.5174 56.4797 22.5977 56.6804 22.7181C56.8811 22.8385 56.6403 22.9188 56.1586 22.8385C55.6769 22.7582 55.5163 22.678 55.7973 22.5977ZM68.4019 25.8489C73.7006 27.2135 74.8246 27.7353 72.4161 27.7353C71.4527 27.7353 70.5695 27.5748 70.4893 27.4142C69.5259 24.9257 55.9177 24.9257 48.3309 26.8924C47.9295 26.7319 47.5682 26.5713 47.1668 26.4108C54.4726 24.1229 60.8953 23.9222 68.4019 25.8489ZM49.6556 21.1929C49.6556 21.1929 50.0169 20.9119 50.619 20.8316C51.2211 20.7513 51.7831 20.7915 51.8634 20.9119C51.9437 21.0323 51.5021 21.1929 50.9 21.2731C50.2979 21.3534 49.7359 21.3133 49.6957 21.1929M51.9838 22.7984C52.9874 22.6378 54.1113 22.6378 54.5128 22.7984C55.0748 22.9991 55.0748 23.0793 54.6332 23.0392C53.8705 23.0392 49.7359 24.2835 49.4549 24.6046C49.3345 24.725 48.933 24.8053 48.5718 24.7651C48.2105 24.725 46.9259 25.1665 45.6414 25.7686C44.9991 25.4876 44.397 25.2468 43.7547 24.9658C45.6414 24.2835 50.1373 23.0793 51.9838 22.8385M48.3711 22.5174C48.6119 22.678 48.6119 22.7582 48.3711 22.7582C48.1703 22.7582 47.7689 22.8385 47.4879 22.9188C46.9661 23.0793 46.9661 23.0793 47.4879 22.678C47.8091 22.4773 48.2105 22.397 48.3711 22.5174ZM41.5871 22.7181C41.7476 23.1596 41.1054 23.4406 40.6237 23.1195C39.9011 22.6378 40.3828 22.1963 42.1892 21.6745C43.2329 21.3534 44.7583 20.8717 45.6013 20.5105C46.5647 20.1091 47.3274 20.069 47.6886 20.3098C48.0098 20.5105 48.0901 20.7112 47.8893 20.7112C47.6886 20.7112 47.4076 20.7513 47.2872 20.7915C47.1668 20.7915 46.6048 20.9119 46.0027 21.0323C45.4407 21.1527 44.3569 21.5942 43.6343 22.0759C42.9117 22.5174 42.1089 22.7984 41.8681 22.6378C41.6272 22.4773 41.5068 22.5174 41.5871 22.7181ZM64.8292 15.6939C65.1102 15.6137 65.5117 15.6939 65.7124 15.8144C65.9131 15.9348 65.6722 16.0151 65.1905 15.9348C64.7088 15.8545 64.5483 15.7742 64.8292 15.6939ZM83.0136 27.6551C82.7727 27.8156 83.2143 28.2571 84.1777 28.7789C85.0206 29.2606 85.8235 29.8225 85.9038 30.0633C85.9038 30.0633 85.9038 30.1035 85.9038 30.1436C85.7432 30.1436 85.5826 30.1838 85.4221 30.2239C85.2214 30.1035 84.9404 29.9429 84.5389 29.7422C83.8164 29.3409 82.853 29.0599 82.3713 29.0198C81.8896 29.0198 81.6889 28.9796 81.9699 28.8993C82.7326 28.7388 82.4114 27.2537 81.5684 27.1333C81.167 27.0931 80.886 26.8523 80.886 26.6115C80.886 26.3706 80.8057 26.2904 80.605 26.3706C80.4445 26.4911 80.2438 26.3706 80.1635 26.17C80.0832 25.9693 79.7219 25.8489 79.3606 25.9291C78.8789 26.0495 78.7986 25.9291 78.9994 25.608C79.1599 25.3271 79.1599 25.2066 78.9994 25.3271C78.5979 25.608 75.6676 24.0426 75.9084 23.6413C76.2296 23.0392 68.8033 19.8683 64.749 18.8648C62.1799 18.2226 54.2719 18.1825 54.8339 18.7846C55.0748 19.0254 54.874 19.0655 54.3121 18.8247C53.4691 18.5036 49.8563 18.9451 49.4549 19.4669C49.2542 19.7077 50.8197 19.6275 52.024 19.3064C52.305 19.2261 52.024 19.4268 51.462 19.7077C50.7394 20.069 50.0972 20.069 49.3746 19.8282L48.3309 19.4268L49.3746 18.9853C52.2648 17.741 61.1763 17.2192 64.3877 18.1022C72.5365 20.35 84.5791 26.5312 82.9333 27.6149M50.2979 17.0185C50.1774 16.6573 50.2176 16.577 50.3781 16.7777C50.5387 16.9382 51.5021 16.8981 52.5057 16.6573C53.5092 16.4164 54.5529 16.3362 54.8339 16.4566C55.1149 16.577 54.9142 16.7375 54.2719 16.8579C51.3416 17.3797 42.1089 20.2697 41.0652 20.952C40.7039 21.1928 40.3427 21.2731 40.2222 21.1126C40.142 20.952 40.0215 21.1126 40.0215 21.4738C40.0215 21.8351 39.8208 22.116 39.6602 22.0759C39.4997 22.0759 39.4595 21.8752 39.5398 21.6745C39.6602 21.4738 39.5398 21.3534 39.3391 21.4337C38.9377 21.5942 38.0144 20.8717 38.2553 20.5908C38.3356 20.5105 38.8975 20.3901 39.4997 20.3098C40.1018 20.2697 41.0652 19.9887 41.6272 19.7479C42.1892 19.5071 44.0759 18.8648 45.802 18.3431C47.5281 17.8213 49.0133 17.2995 49.0936 17.1791C49.1337 17.0586 49.4549 17.0586 49.8162 17.2192C50.2577 17.4199 50.3781 17.3797 50.2176 16.9784M54.1515 11.1985C53.9508 10.9577 54.1916 10.8373 54.9142 10.9175C55.5163 10.9577 57.4833 11.0781 59.2495 11.1584C64.9497 11.3992 70.971 13.968 77.2733 18.8648C83.5354 23.7215 88.1919 26.8924 92.3265 29.0599C91.8849 29.1402 91.4835 29.2204 91.0419 29.3007C88.9947 28.1769 86.546 26.6918 84.3382 25.1665C83.5354 24.6046 82.853 24.2835 82.8128 24.444C82.8128 24.6046 82.6924 24.5243 82.6121 24.2433C82.3311 23.5209 71.0111 15.2926 69.2449 14.5299C68.3617 14.1687 67.3983 13.7272 67.1173 13.5666C66.7561 13.4061 66.6356 13.4462 66.7561 13.7673C66.8765 14.0884 66.7159 14.1286 66.1138 13.8476C65.6722 13.6469 65.0701 13.4462 64.7891 13.4462C64.5081 13.4462 64.3475 13.2857 64.468 13.085C64.749 12.6033 55.5163 11.8006 53.2684 12.1217C52.2648 12.2421 50.619 12.3224 49.5352 12.2822L47.6084 12.2019L49.2943 11.5999C50.2176 11.2788 51.2613 11.1584 51.5824 11.3189C51.9437 11.4795 52.305 11.4795 52.3852 11.3189C52.4655 11.1584 52.9874 11.1182 53.5092 11.3189C54.1113 11.4795 54.3522 11.4393 54.1113 11.1985M32.1938 18.3832C32.9164 18.1825 33.3178 18.2628 33.5988 18.624C33.7995 18.905 34.0002 19.3465 33.9601 19.5873C33.9601 19.8282 33.8397 19.788 33.6791 19.4669C33.5185 19.0655 32.0333 18.9451 30.3072 19.0254C30.0663 18.905 29.8255 18.8247 29.5445 18.7043C30.4276 18.7043 31.6319 18.5437 32.1537 18.3832M32.9164 17.3797C32.9164 17.3797 32.4748 17.6607 31.9931 17.6206C31.5114 17.5804 31.11 17.46 31.11 17.3396C31.11 17.2593 31.5114 17.1791 32.0333 17.0988C32.515 17.0988 32.9164 17.1791 32.9164 17.3797ZM30.8692 16.6573C28.7818 16.9382 22.8809 16.3362 20.7534 15.5735C19.5491 15.1722 20.2717 15.132 24.607 15.413C27.5374 15.6137 30.548 15.7341 31.3509 15.6939C33.4382 15.5735 33.077 16.3763 30.8692 16.6573ZM34.4016 9.87394C32.796 9.95422 31.11 10.0345 30.5882 10.1148C29.8255 10.195 29.7853 10.1148 30.267 9.8338C30.6684 9.55284 35.9672 8.99091 37.2517 9.11132C38.6166 9.23173 36.4489 9.79367 34.4016 9.91408M37.3722 7.42553L38.3356 6.78332C39.0983 6.26152 39.9011 6.18125 42.6709 6.46221C44.6378 6.6629 46.0027 6.62277 45.9224 6.42208C45.8421 6.22139 45.9625 6.18125 46.2034 6.30166C46.4442 6.46221 46.8055 6.46221 47.0464 6.30166C47.2872 6.14111 46.1231 5.90028 44.2364 5.77987C42.4702 5.65945 41.4666 5.4989 42.0286 5.45876C42.5906 5.41863 43.2329 5.21794 43.4737 5.01725C43.7146 4.81656 44.8787 4.85669 46.4041 5.1778C49.3345 5.77987 49.495 5.90028 48.1703 6.46221C47.2872 6.82346 46.2837 7.42553 42.43 9.79367C41.6272 10.2753 41.3462 10.3155 41.1856 9.95422C41.0652 9.67325 40.7842 9.5127 40.5434 9.59297C40.3025 9.67325 39.9412 9.59298 39.7405 9.39229C39.4997 9.15146 39.8208 9.03104 40.5835 9.03104C41.2258 9.03104 41.7075 9.15146 41.6272 9.31201C41.3462 9.8338 42.0286 9.67325 42.7512 9.03104L43.4737 8.38884H42.6308C42.149 8.3487 41.0652 8.38884 40.2222 8.42897C39.2187 8.50925 38.456 8.3487 38.0546 7.98746L37.4524 7.42553H37.3722ZM35.6461 12.0414C35.6461 12.0414 35.8468 11.7203 36.0475 11.7203C36.2482 11.7203 36.4087 12.0013 36.4087 12.3224C36.4087 12.6435 36.208 12.7639 36.0073 12.6435C35.8066 12.523 35.6461 12.2421 35.6461 12.0414ZM36.1679 14.9715C35.8869 15.4531 36.4087 15.4531 36.8503 14.9715C37.051 14.7306 37.2919 14.6504 37.3722 14.7708C37.5327 15.0116 36.0475 15.8144 34.8432 16.1756C34.1207 16.3763 33.9601 15.8144 34.6024 15.2926C35.1242 14.8109 36.3686 14.6102 36.1679 15.0116M24.8077 11.6802C25.0887 11.5999 25.4901 11.6802 25.6908 11.8006C25.8916 11.921 25.6507 12.0013 25.169 11.921C24.6873 11.8407 24.5267 11.7604 24.8077 11.6802ZM22.4394 11.3992C22.7203 11.3189 23.1218 11.3992 23.3225 11.5196C23.5232 11.64 23.2823 11.7203 22.8006 11.64C22.3189 11.5597 22.1584 11.4795 22.4394 11.3992ZM22.4795 12.7237C26.2528 13.687 27.8987 13.9279 30.3875 13.8877C34.0002 13.8476 33.7995 13.8075 33.1573 14.7708C32.796 15.2926 32.6354 15.3327 32.5551 15.0116C32.515 14.7306 32.3143 14.4898 32.1537 14.4497C31.9931 14.4497 31.9128 14.5701 31.9931 14.7306C32.1537 15.132 22.8809 13.5265 20.0308 12.6836C18.9069 12.3625 17.3413 12.0815 16.5786 12.0815C15.6554 12.0815 15.1737 11.921 15.2138 11.64C15.2138 11.0379 16.8596 11.2788 22.4795 12.7237ZM12.0827 13.8877C12.4039 14.0483 12.6447 14.2891 12.6849 14.4497C12.2433 14.4497 11.8017 14.4095 11.3602 14.3694C11.0792 14.3694 10.7982 14.3694 10.5172 14.3694C10.4369 13.968 11.3602 13.5666 12.0827 13.8877ZM115.368 26.6115C115.368 26.3305 115.368 26.0094 115.408 25.7284C112.438 25.2066 107.34 23.6814 102.563 21.6344C98.0266 19.6676 88.6736 12.4829 79.1198 3.57228C78.8789 3.492 78.6782 3.41173 78.4775 3.29131C77.9557 3.73283 77.3134 3.93352 76.7113 3.85325C78.4374 5.01725 80.2839 6.38194 82.2107 8.02759C86.9475 12.0013 87.2285 12.2822 86.5059 12.2019C86.2249 12.2019 85.9841 11.9611 85.9038 11.7604C85.8235 11.5196 85.5425 11.4393 85.3016 11.5196C85.0608 11.5999 84.7798 11.3992 84.6995 10.9978C84.6192 10.6366 84.3784 10.3957 84.1375 10.476C83.8967 10.5563 83.7361 10.476 83.7361 10.2352C83.7361 10.0345 83.5755 9.8338 83.3347 9.79367C83.0938 9.79367 82.8931 9.59298 82.853 9.43242C82.7727 9.07118 79.2001 6.50235 76.1091 4.57573C74.945 3.85325 73.7006 3.01035 73.4196 2.76952C73.0584 2.44842 72.6569 2.16745 72.2154 1.92662C70.8907 1.72593 69.566 1.20414 68.2413 1.04359C66.7159 0.842897 65.1905 0.682346 63.6651 0.521794C62.6616 0.40138 61.6179 0.321104 60.6143 0.20069C59.089 0.521794 57.4431 1.28442 54.3923 2.76952C52.6662 3.61242 51.0606 4.29476 50.8197 4.25462C50.1373 4.17435 50.3781 3.53214 51.1408 3.33145C51.5021 3.25118 53.1078 2.56883 54.7135 1.76607L56.2389 1.00345C55.6367 0.923173 55.155 0.60207 54.7938 0.120414C54.6332 0.160552 54.4325 0.20069 54.2318 0.20069C53.9106 0.20069 53.6698 0.120414 53.4289 0.040138C53.3487 0.040138 53.2282 0.040138 53.1479 0C52.8669 0.160552 52.5458 0.240828 52.1845 0.240828C52.1043 0.240828 52.0641 0.240828 51.9838 0.240828C51.8634 0.321104 51.7028 0.361242 51.5423 0.40138C51.2613 0.521794 50.9401 0.60207 50.619 0.60207C50.2979 0.60207 49.9767 0.521794 49.6957 0.40138C49.495 0.561932 49.2943 0.682346 49.0936 0.762621C49.1739 0.883035 49.0936 0.883035 48.8929 0.842897C48.4915 0.963311 48.0098 0.963311 47.6084 0.802759C47.0865 0.802759 46.4041 0.923173 45.6414 1.00345C45.1998 1.4851 44.6378 1.76607 44.0759 1.76607C43.2329 1.76607 42.3899 1.76607 41.5871 1.76607C40.3025 1.96676 39.1384 2.12731 38.737 2.08717C38.2553 2.04704 37.5327 2.20759 37.1313 2.44842C36.7299 2.68924 35.8869 2.97021 35.1643 3.05049C34.4819 3.13076 33.8798 3.33145 33.8798 3.492C33.8798 3.65256 34.3615 3.73283 34.9636 3.61242C36.2883 3.37159 36.5292 3.61242 35.5658 4.13421C34.6826 4.656 34.0805 4.61587 33.5988 4.13421C33.1572 3.65256 33.2375 3.21104 33.6791 2.93007C33.5185 2.93007 33.3981 2.88993 33.2777 2.80966C32.9565 3.01035 32.5953 3.09062 32.1938 3.09062C32.3143 3.25118 32.4347 3.41173 32.515 3.53214C34.9636 6.58263 34.9235 7.10442 32.1136 6.10097L30.6684 5.57918L32.2741 5.73973C33.4784 5.86014 33.7995 5.73973 33.4784 5.41863C33.2375 5.1778 32.1938 4.93697 31.1502 4.93697C29.4642 4.93697 29.3438 4.85669 30.267 4.61587C32.5551 3.97366 32.5953 3.73283 30.3473 3.65256C29.7452 3.65256 29.1029 3.65256 28.5008 3.65256C27.7782 4.13421 26.9352 4.45531 25.9718 4.656C26.1726 4.93697 25.6507 5.1778 24.4464 5.45876C20.7132 6.38194 18.8266 6.0207 16.2575 3.93352C14.9328 2.8498 13.9293 2.328 13.1264 2.24773L11.9222 2.12731L13.3673 2.80966C15.0532 3.57228 16.1371 4.57573 15.8962 5.1778C15.8159 5.41863 16.1772 5.73973 16.8195 5.98056C17.4216 6.18125 18.7864 6.70304 19.9104 7.1847C21.0344 7.66635 22.5999 8.10787 23.4028 8.18815L24.888 8.30856L22.8408 7.58608C20.3921 6.70304 21.1548 6.62277 26.2528 7.34525C28.0994 7.62621 29.6649 7.86704 29.6649 7.90718C29.8656 8.18815 27.9388 8.79022 27.136 8.6698C26.6141 8.62966 26.1726 8.75008 26.1324 8.95077C26.1324 9.5127 23.764 9.15146 20.1111 7.98746C16.0568 6.70304 15.4547 6.38194 15.5751 5.53904C15.6554 5.05738 15.4547 4.85669 15.0131 4.85669C14.2103 4.85669 11.4003 2.68924 11.5609 2.16745C11.6412 1.96676 11.3602 1.72593 10.9186 1.64566C10.477 1.56538 9.71435 1.08373 9.19251 0.561932L8.95165 0.321104C8.95165 0.321104 8.59038 0.361242 8.42981 0.40138C8.9918 0.923173 9.39322 1.52524 9.23265 1.96676C9.11222 2.328 9.15236 2.48855 9.4735 2.36814C9.71435 2.28786 10.7982 2.93007 11.882 3.81311C14.3708 5.82001 14.5314 6.30166 12.8053 6.10097C11.6813 5.98056 11.1193 5.53904 9.19251 3.492C7.94811 2.16745 6.54314 0.883035 6.10158 0.682346C6.02129 0.682346 5.98115 0.60207 5.94101 0.60207C5.37902 0.682346 4.81703 0.802759 4.29519 1.00345C4.65647 1.4851 5.01774 2.04704 5.37902 2.68924C6.30229 4.25462 7.02484 5.57918 7.02484 5.61932C7.02484 6.10097 5.01774 6.06083 4.89732 5.57918C4.89732 5.37849 3.57263 4.3349 2.04724 3.21104C2.04724 3.21104 2.04724 3.21104 2.0071 3.21104C2.0071 3.53214 1.96696 3.81311 1.92681 4.13421C2.0071 4.17435 2.04724 4.25462 2.12752 4.29476C4.01419 5.86014 4.13462 6.26152 2.56908 6.10097C2.32823 6.10097 2.04724 5.98056 1.80639 5.86014C1.76625 6.50235 1.68596 7.14456 1.60568 7.78677C3.37192 9.1916 5.78044 11.7203 6.503 13.1653C6.66356 13.4864 6.9847 13.8075 7.22555 13.8476C7.42626 13.8476 7.66711 14.0884 7.78754 14.3293C7.4664 14.3293 7.18541 14.3293 6.86427 14.3293C6.70371 14.2088 6.58328 14.0483 6.503 13.8877C6.34243 13.5265 5.94101 13.2054 5.61987 13.2054C4.53604 13.085 2.68951 11.5597 1.32468 9.99436C1.2444 10.3957 1.20426 10.8373 1.12397 11.2386C1.2444 11.359 1.28454 11.4795 1.28454 11.5597C1.28454 11.7604 1.20426 11.8808 1.04369 11.8006C1.04369 12.0013 1.00355 12.2019 0.963407 12.4026C1.84653 13.0448 2.76979 14.0483 3.17121 14.7708C2.89022 14.8109 2.60923 14.8912 2.36837 14.9715C1.88667 14.6905 1.36483 14.2891 0.883123 13.9279C0.883123 14.0884 0.883123 14.2891 0.883123 14.4497C1.28454 14.7708 1.56554 14.9715 1.7261 15.1722C1.56554 15.2123 1.36483 15.2926 1.20426 15.3327C1.12397 15.2524 1.00355 15.1722 0.883123 15.0919C0.883123 15.2123 0.883123 15.3327 0.883123 15.4933C0.602129 15.6137 0.280994 15.7341 0 15.8545V59.4042H115.81V26.8122C115.81 26.8122 115.529 26.6918 115.368 26.6115Z" fill="#00642B"/>
<path d="M28.5118 64.7393C29.8016 64.7393 30.7426 64.9922 31.3351 65.498C31.9321 65.9993 32.2306 66.7194 32.2306 67.6582C32.2306 68.082 32.16 68.4854 32.0187 68.8682C31.882 69.2464 31.6587 69.5814 31.3488 69.873C31.0389 70.1602 30.631 70.388 30.1251 70.5566C29.6238 70.7207 29.0086 70.8027 28.2794 70.8027H27.0626V74.7334H25.9005V64.7393H28.5118ZM28.4025 65.7305H27.0626V69.8047H28.1495C28.7876 69.8047 29.3185 69.7363 29.7423 69.5996C30.1707 69.4629 30.492 69.2419 30.7062 68.9365C30.9204 68.6266 31.0275 68.2165 31.0275 67.7061C31.0275 67.0407 30.8156 66.5462 30.3917 66.2227C29.9679 65.8945 29.3048 65.7305 28.4025 65.7305ZM40.5909 74.7334L39.3605 71.5615H35.3546L34.131 74.7334H32.9552L36.8654 64.6982H37.9113L41.7941 74.7334H40.5909ZM39.0118 70.5293L37.8429 67.3779C37.8156 67.2959 37.77 67.1615 37.7062 66.9746C37.6469 66.7878 37.5854 66.5941 37.5216 66.3936C37.4578 66.193 37.4054 66.0312 37.3644 65.9082C37.3188 66.0951 37.2687 66.2819 37.214 66.4688C37.1639 66.651 37.1137 66.8219 37.0636 66.9814C37.0135 67.1364 36.9702 67.2686 36.9337 67.3779L35.7443 70.5293H39.0118ZM43.1818 74.7334V64.7393H44.3439V73.6943H48.7804V74.7334H43.1818ZM58.0704 74.7334H56.9083V70.0234H51.6583V74.7334H50.4962V64.7393H51.6583V68.998H56.9083V64.7393H58.0704V74.7334ZM67.087 74.7334L65.8566 71.5615H61.8507L60.6271 74.7334H59.4513L63.3615 64.6982H64.4073L68.2902 74.7334H67.087ZM65.5079 70.5293L64.339 67.3779C64.3116 67.2959 64.2661 67.1615 64.2023 66.9746C64.143 66.7878 64.0815 66.5941 64.0177 66.3936C63.9539 66.193 63.9015 66.0312 63.8605 65.9082C63.8149 66.0951 63.7648 66.2819 63.7101 66.4688C63.66 66.651 63.6098 66.8219 63.5597 66.9814C63.5096 67.1364 63.4663 67.2686 63.4298 67.3779L62.2404 70.5293H65.5079ZM77.6144 69.6406C77.6144 70.7663 77.4093 71.7074 76.9991 72.4639C76.589 73.2158 75.9943 73.7832 75.215 74.166C74.4402 74.5443 73.4991 74.7334 72.3917 74.7334H69.6779V64.7393H72.6925C73.7088 64.7393 74.5838 64.9261 75.3175 65.2998C76.0512 65.6689 76.6163 66.2181 77.0128 66.9473C77.4139 67.6719 77.6144 68.5697 77.6144 69.6406ZM76.3907 69.6816C76.3907 68.7839 76.2404 68.0433 75.9396 67.46C75.6434 66.8766 75.2059 66.4437 74.6271 66.1611C74.0529 65.874 73.3488 65.7305 72.5148 65.7305H70.84V73.7354H72.255C73.6313 73.7354 74.6635 73.3958 75.3517 72.7168C76.0444 72.0378 76.3907 71.026 76.3907 69.6816ZM86.1046 74.7334L84.8741 71.5615H80.8683L79.6447 74.7334H78.4689L82.379 64.6982H83.4249L87.3077 74.7334H86.1046ZM84.5255 70.5293L83.3566 67.3779C83.3292 67.2959 83.2837 67.1615 83.2198 66.9746C83.1606 66.7878 83.0991 66.5941 83.0353 66.3936C82.9715 66.193 82.9191 66.0312 82.8781 65.9082C82.8325 66.0951 82.7823 66.2819 82.7277 66.4688C82.6775 66.651 82.6274 66.8219 82.5773 66.9814C82.5271 67.1364 82.4838 67.2686 82.4474 67.3779L81.2579 70.5293H84.5255Z" fill="#00642B"/>
</svg>
