<svg width="66" height="80" viewBox="0 0 66 80" fill="none" xmlns="http://www.w3.org/2000/svg">
<path d="M16.7115 45.4081C16.7115 45.4081 16.7405 45.4081 16.7696 45.4081H16.7115ZM13.8081 45.4081L12.1822 37.734L13.4017 37.4422L15.1727 43.9783C15.1727 44.1534 15.2308 44.3576 15.3179 44.5035L15.5792 45.4373H13.8372L13.8081 45.4081ZM8.05948 45.4081L6.72394 39.1346L7.94335 38.8136L9.74343 45.4081H8.05948ZM10.9338 45.4081L9.4531 38.4343L10.6725 38.1133L12.6468 45.4081H10.9338ZM59.7392 45.4081H50.6227C51.4937 45.4081 52.2195 44.6786 52.2195 43.7741V32.2192C52.2195 31.3146 51.4937 30.5852 50.6227 30.5852H35.5252C34.6542 30.5852 33.9284 31.3146 33.9284 32.2192V43.7741C33.9284 44.6786 34.6252 45.4081 35.5252 45.4081H31.8089C32.6799 45.4081 33.4058 44.6786 33.4058 43.7741V32.2192C33.4058 31.3146 32.6799 30.5852 31.8089 30.5852H16.7405C15.8695 30.5852 15.1437 31.3146 15.1437 32.2192V38.1425L14.7662 36.4209C14.7662 36.4209 14.7662 36.421 14.7662 36.3918C14.7662 36.3918 14.7662 36.3334 14.7662 36.3042C14.6791 35.8957 14.2727 35.6331 13.8662 35.7498L10.5564 36.596L9.5402 32.2484L9.22083 30.9061L8.11755 26.15L2.25277 0.88096C2.19471 0.647528 1.96244 0.384917 1.6721 0.209844C1.4108 0.0639487 1.09143 -0.0235882 0.859162 0.00559074C0.394625 0.122307 -0.0989459 0.968497 0.0171883 1.46454L6.28844 26.5585L7.47881 31.2855L7.79818 32.6277L8.87242 36.9754L5.5626 37.8215C5.15613 37.9091 4.92386 38.3468 5.01096 38.7553C5.01096 38.7553 5.01096 38.7844 5.01096 38.8136C5.01096 38.8136 5.01096 38.8428 5.01096 38.872L6.78201 45.4081C6.02714 45.5248 5.44646 46.1959 5.44646 47.0129V58.5386C5.44646 59.4432 6.14327 60.1726 7.04331 60.1726H22.1117C22.9827 60.1726 23.7086 59.4432 23.7086 58.5386V47.0129C23.7086 46.1084 22.9827 45.3789 22.1117 45.3789H25.828C24.957 45.3789 24.2312 46.1084 24.2312 47.0129V58.5386C24.2312 59.4432 24.928 60.1726 25.828 60.1726H40.9255C41.7965 60.1726 42.5223 59.4432 42.5223 58.5386V47.0129C42.5223 46.1084 41.7965 45.3789 40.9255 45.3789H44.6418C43.7708 45.3789 43.0449 46.1084 43.0449 47.0129V58.5386C43.0449 59.4432 43.7417 60.1726 44.6418 60.1726H59.7102C60.5812 60.1726 61.307 59.4432 61.307 58.5386V47.0129C61.307 46.1084 60.5812 45.3789 59.7102 45.3789" fill="#00642B"/>
<path d="M25.886 30.4392H40.9544C41.8255 30.4392 42.5513 29.7098 42.5513 28.8052V17.2795C42.5513 16.375 41.8255 15.6455 40.9544 15.6455H25.886C25.015 15.6455 24.2892 16.375 24.2892 17.2795V28.8052C24.2892 29.7098 24.986 30.4392 25.886 30.4392Z" fill="#00642B"/>
<path d="M3.55493 75.5129H2.39282V65.5188H7.95728V66.5442H3.55493V70.2083H7.69067V71.2268H3.55493V75.5129ZM15.1897 75.5129H9.62524V65.5188H15.1897V66.5442H10.7874V69.7776H14.9368V70.7893H10.7874V74.4875H15.1897V75.5129ZM25.218 75.5129H23.8782L18.4299 67.1184H18.3752C18.3889 67.3417 18.4049 67.5969 18.4231 67.884C18.4413 68.1666 18.455 68.4696 18.4641 68.7932C18.4778 69.1122 18.4846 69.4381 18.4846 69.7708V75.5129H17.4045V65.5188H18.7375L24.1653 73.886H24.2131C24.204 73.7265 24.1926 73.5009 24.179 73.2092C24.1653 72.913 24.1516 72.5963 24.1379 72.259C24.1288 71.9172 24.1243 71.6005 24.1243 71.3088V65.5188H25.218V75.5129ZM34.2141 75.5129L32.9836 72.3411H28.9778L27.7542 75.5129H26.5784L30.4885 65.4778H31.5344L35.4172 75.5129H34.2141ZM32.635 71.3088L31.4661 68.1575C31.4387 68.0754 31.3931 67.941 31.3293 67.7542C31.2701 67.5673 31.2086 67.3736 31.1448 67.1731C31.081 66.9726 31.0286 66.8108 30.9875 66.6877C30.942 66.8746 30.8918 67.0614 30.8372 67.2483C30.787 67.4306 30.7369 67.6015 30.6868 67.761C30.6366 67.9159 30.5933 68.0481 30.5569 68.1575L29.3674 71.3088H32.635ZM41.0774 66.4006C40.526 66.4006 40.0292 66.4963 39.5872 66.6877C39.1497 66.8746 38.776 67.148 38.4661 67.5081C38.1607 67.8635 37.926 68.2942 37.762 68.8C37.5979 69.3059 37.5159 69.8756 37.5159 70.509C37.5159 71.3476 37.6458 72.0767 37.9055 72.6965C38.1698 73.3118 38.5618 73.788 39.0813 74.1252C39.6054 74.4625 40.2594 74.6311 41.0432 74.6311C41.4898 74.6311 41.9091 74.5946 42.301 74.5217C42.6975 74.4443 43.0826 74.3486 43.4563 74.2346V75.2463C43.0917 75.3831 42.7089 75.4833 42.3079 75.5471C41.9068 75.6155 41.4306 75.6497 40.8792 75.6497C39.8629 75.6497 39.0129 75.44 38.3293 75.0208C37.6503 74.5969 37.1399 73.9999 36.7981 73.2297C36.4609 72.4596 36.2922 71.5504 36.2922 70.5022C36.2922 69.7457 36.3971 69.0553 36.6067 68.4309C36.8209 67.802 37.1308 67.2597 37.5364 66.804C37.9465 66.3482 38.4478 65.9973 39.0403 65.7512C39.6373 65.5006 40.3209 65.3752 41.0911 65.3752C41.5969 65.3752 42.0846 65.4254 42.554 65.5256C43.0234 65.6259 43.4472 65.7694 43.8254 65.9563L43.3606 66.9407C43.0416 66.7948 42.6907 66.6695 42.3079 66.5647C41.9296 66.4553 41.5194 66.4006 41.0774 66.4006ZM42.0071 77.468C42.0071 77.9101 41.8362 78.2542 41.4944 78.5002C41.1526 78.7509 40.6513 78.8762 39.9905 78.8762C39.8492 78.8762 39.7148 78.8671 39.5872 78.8489C39.4596 78.8352 39.357 78.8193 39.2795 78.801V78.0833C39.3661 78.1015 39.4778 78.1174 39.6145 78.1311C39.7512 78.1448 39.8879 78.1516 40.0247 78.1516C40.3665 78.1516 40.6285 78.1015 40.8108 78.0012C40.9931 77.901 41.0842 77.7323 41.0842 77.4954C41.0842 77.2447 40.9612 77.0624 40.7151 76.9485C40.4736 76.8346 40.1637 76.7571 39.7854 76.7161L40.3938 75.5129H41.1526L40.7834 76.2786C41.0113 76.3241 41.2164 76.3948 41.3987 76.4905C41.5855 76.5862 41.7336 76.7138 41.843 76.8733C41.9524 77.0328 42.0071 77.231 42.0071 77.468ZM51.8918 75.5129L50.6614 72.3411H46.6555L45.4319 75.5129H44.2561L48.1663 65.4778H49.2122L53.095 75.5129H51.8918ZM50.3127 71.3088L49.1438 68.1575C49.1165 68.0754 49.0709 67.941 49.0071 67.7542C48.9478 67.5673 48.8863 67.3736 48.8225 67.1731C48.7587 66.9726 48.7063 66.8108 48.6653 66.6877C48.6197 66.8746 48.5696 67.0614 48.5149 67.2483C48.4648 67.4306 48.4146 67.6015 48.3645 67.761C48.3144 67.9159 48.2711 68.0481 48.2346 68.1575L47.0452 71.3088H50.3127ZM46.095 64.5002C46.1223 64.2268 46.1747 63.983 46.2522 63.7688C46.3297 63.5546 46.4322 63.3723 46.5598 63.2219C46.6874 63.0715 46.8378 62.9576 47.011 62.8801C47.1887 62.7981 47.3847 62.7571 47.5989 62.7571C47.8085 62.7571 48.009 62.8004 48.2004 62.887C48.3918 62.969 48.5741 63.0647 48.7473 63.1741C48.9205 63.2789 49.0868 63.3746 49.2463 63.4612C49.4104 63.5432 49.5676 63.5842 49.718 63.5842C49.9368 63.5842 50.1054 63.5181 50.2239 63.386C50.3469 63.2493 50.4403 63.0351 50.5042 62.7434H51.1741C51.1148 63.2766 50.9576 63.7027 50.7024 64.0217C50.4472 64.3362 50.1031 64.4934 49.6702 64.4934C49.4696 64.4934 49.276 64.4524 49.0891 64.3704C48.9023 64.2838 48.7222 64.1881 48.5491 64.0833C48.3759 63.9739 48.205 63.8782 48.0364 63.7961C47.8723 63.7096 47.7105 63.6663 47.551 63.6663C47.3277 63.6663 47.1568 63.7346 47.0383 63.8713C46.9198 64.0035 46.8287 64.2131 46.7649 64.5002H46.095ZM63.1506 70.5022C63.1506 71.2724 63.0527 71.9742 62.8567 72.6077C62.6607 73.2366 62.3691 73.7789 61.9817 74.2346C61.5989 74.6858 61.1226 75.0344 60.553 75.2805C59.9833 75.5266 59.3225 75.6497 58.5706 75.6497C57.7958 75.6497 57.1191 75.5266 56.5403 75.2805C55.9661 75.0344 55.4875 74.6835 55.1047 74.2278C54.7265 73.7721 54.4417 73.2275 54.2502 72.594C54.0634 71.9605 53.97 71.2587 53.97 70.4885C53.97 69.4677 54.1386 68.5722 54.4758 67.802C54.8131 67.0318 55.3235 66.4325 56.0071 66.0042C56.6952 65.5758 57.5566 65.3616 58.5911 65.3616C59.58 65.3616 60.4117 65.5735 61.0862 65.9973C61.7652 66.4211 62.2779 67.0181 62.6243 67.7883C62.9752 68.554 63.1506 69.4586 63.1506 70.5022ZM55.1936 70.5022C55.1936 71.3499 55.3144 72.0836 55.5559 72.7034C55.7974 73.3232 56.1666 73.8017 56.6633 74.1389C57.1646 74.4762 57.8004 74.6448 58.5706 74.6448C59.3453 74.6448 59.9788 74.4762 60.4709 74.1389C60.9677 73.8017 61.3346 73.3232 61.5715 72.7034C61.8085 72.0836 61.927 71.3499 61.927 70.5022C61.927 69.2125 61.6558 68.2053 61.1135 67.4807C60.5758 66.7515 59.7349 66.387 58.5911 66.387C57.8163 66.387 57.1783 66.5533 56.677 66.886C56.1757 67.2187 55.802 67.6926 55.5559 68.3079C55.3144 68.9185 55.1936 69.65 55.1936 70.5022Z" fill="#00642B"/>
</svg>
