<svg width="88" height="80" viewBox="0 0 88 80" fill="none" xmlns="http://www.w3.org/2000/svg">
<path d="M22.3332 30.7718C22.0222 31.7033 21.7733 32.6348 21.4934 33.5664C21.1201 34.8705 20.7158 36.1436 20.3114 37.4478C19.9693 35.0258 19.6582 32.6348 19.4716 30.2439C19.3472 28.8155 19.285 27.4182 19.2539 25.9899C20.3736 27.5735 21.4001 29.1571 22.3332 30.7718ZM28.2431 28.2877C27.4033 29.4055 26.6257 30.5544 25.9414 31.7033C26.3457 29.0329 26.9367 26.3314 27.8388 23.6921C27.901 25.2446 28.0565 26.7662 28.2431 28.3187M33.6865 23.4126C33.3443 25.5862 33.0955 27.7287 33.0022 29.9023C32.9399 30.6786 32.94 31.4549 32.9088 32.2622C32.5667 32.6038 32.2556 32.9454 31.9135 33.2869C31.3536 31.7654 30.7937 30.2439 30.296 28.7224C31.2292 26.9525 32.349 25.1825 33.6554 23.4437M37.2946 27.884C37.2946 27.884 37.108 28.0703 37.0147 28.1324C37.0147 27.884 37.0147 27.6356 37.0147 27.4182C37.108 27.5735 37.2324 27.7287 37.3257 27.884M41.7426 25.8036C41.1205 27.263 40.5917 28.6913 40.1251 30.1507C39.783 29.7471 39.4408 29.3434 39.0676 28.9397C39.9385 27.884 40.8406 26.8593 41.7426 25.8346M56.113 7.94911C53.3758 12.6378 51.6961 17.4818 50.763 22.3569C49.2077 23.9094 47.8391 25.462 46.5949 27.0767C46.2217 25.8036 45.8795 24.5305 45.5685 23.2574C45.9106 22.2948 46.2839 21.3322 46.7194 20.3696C48.4301 18.5376 50.172 16.7366 51.945 14.9356C50.4519 16.1777 48.99 17.4197 47.5281 18.6618C49.4255 14.9667 52.1938 11.3337 56.1441 7.94911M49.8609 30.0886C49.7987 30.9891 49.7987 31.8586 49.7676 32.759C49.4566 33.0696 49.1766 33.3801 48.8656 33.6906C48.3368 32.2933 47.8391 30.896 47.3726 29.4987C48.2124 27.7598 49.2388 26.0209 50.4208 24.3442C50.1409 26.2693 49.9543 28.1635 49.8609 30.0886ZM56.2063 32.9143C55.6464 33.5353 55.0865 34.1564 54.5266 34.8084C54.4022 33.7837 54.2778 32.728 54.1845 31.7033C55.4909 30.0265 56.8595 28.3808 58.2903 26.7041C57.4505 28.7534 56.7973 30.8339 56.2063 32.8833M68.6793 38.3172C65.5377 42.2297 62.6761 46.2663 60.0633 50.303C61.463 46.6389 63.3915 42.9749 65.7244 39.373C66.6886 39.0003 67.6528 38.6277 68.6793 38.2862M28.5231 37.0441C28.1809 36.5162 27.8388 36.0194 27.4966 35.4916C27.8699 34.3116 28.2742 33.1317 28.7719 31.9517C28.9896 33.2869 29.2074 34.6221 29.4562 35.9884C29.1452 36.3299 28.8341 36.6715 28.5542 37.0131M39.4719 32.2001C38.8499 32.8833 38.2278 33.5974 37.6057 34.3116C37.4812 33.2559 37.3568 32.1691 37.2635 31.1133C37.6368 30.6476 38.0411 30.1507 38.4455 29.685C38.8499 30.3681 39.2542 31.0512 39.6275 31.7344C39.5653 31.8896 39.5342 32.0449 39.5031 32.2312M43.6089 31.3617C43.8888 29.4366 44.2932 27.4803 44.822 25.5552C44.9153 26.7041 45.0397 27.853 45.1641 28.9708C44.6042 29.7781 44.0755 30.5544 43.6089 31.3617ZM45.5374 37.4478C45.2885 37.0752 45.0397 36.7336 44.822 36.361C45.1019 35.3052 45.4441 34.2806 45.8173 33.2559C46.0039 34.3427 46.1906 35.4295 46.3772 36.5162C46.0973 36.8268 45.8173 37.1373 45.5685 37.4788M54.7755 36.5162C55.0554 36.0194 55.3043 35.4916 55.5842 34.9947C55.3354 35.771 55.1176 36.5473 54.8688 37.3236C54.8377 37.0441 54.8066 36.7957 54.7755 36.5162ZM43.9821 48.1915C44.2932 47.5084 44.6042 46.7942 44.9464 46.08C45.0086 46.4526 45.0708 46.8253 45.1019 47.1979C44.822 47.6326 44.5109 48.0673 44.231 48.471C44.1377 48.3778 44.0443 48.2536 43.951 48.1605M39.192 33.2248C38.8187 34.529 38.4144 35.8331 38.01 37.1062C37.9167 36.5783 37.8545 36.0815 37.7923 35.5537C38.2589 34.7153 38.7565 33.8769 39.2542 33.0385C39.2542 33.1006 39.2231 33.1627 39.192 33.2248ZM26.719 47.5705C27.0923 46.7631 27.4966 45.9558 27.901 45.1485C27.9943 45.5832 28.0876 46.049 28.1498 46.4837C27.8077 47.0116 27.4655 47.5084 27.0923 48.0363C26.9678 47.881 26.8434 47.7257 26.6879 47.5705M74.7758 31.2375C72.7229 33.4732 70.7633 35.771 68.897 38.0999C67.9639 38.3172 67.0308 38.5656 66.1287 38.814C71.5098 30.6165 78.8195 22.6053 86.5334 14.7804C77.202 22.5742 68.0883 30.7407 61.0897 39.3109C61.152 39.0624 61.1831 38.814 61.2453 38.5656C62.8627 31.3307 66.4398 24.1268 73.4383 17.575C67.7462 21.8911 63.5781 26.642 60.5299 31.5791C61.0586 28.0703 61.8985 24.5926 63.3604 21.1459C65.4133 18.9412 67.4973 16.7677 69.6436 14.5941C67.8395 16.0845 66.0665 17.606 64.2935 19.1276C66.2842 15.1841 69.177 11.3647 73.4694 7.76281C67.0619 12.2963 62.9871 17.4197 60.1877 22.7295C58.0415 24.6547 55.9575 26.5799 53.9357 28.5671C53.749 25.6483 53.8112 22.7295 54.1223 19.8107C54.8688 19.0034 55.6775 18.196 56.5485 17.3887C55.7397 18.0097 54.9621 18.6307 54.1845 19.2828C54.9932 12.8242 57.2328 6.39655 61.8052 0.217359C59.5656 2.70146 57.7304 5.24766 56.2063 7.85596C51.1362 11.52 47.5281 15.5567 44.8842 19.7796C44.822 19.5002 44.7909 19.2207 44.7287 18.9412C44.7287 19.3139 44.7287 19.6865 44.7287 20.0591C44.2932 20.7733 43.8888 21.4875 43.5156 22.2016C41.556 23.9405 39.6586 25.6794 37.7923 27.4493C37.5435 27.1698 37.2946 26.8904 37.0147 26.642C36.9525 24.1889 37.0147 21.7359 37.3257 19.2518C37.8234 18.7239 38.3522 18.2271 38.881 17.6992C38.3522 18.1029 37.8545 18.5065 37.3568 18.9102C38.1655 12.4826 40.4051 6.11709 44.9775 0C38.7565 6.89337 35.5216 14.3457 34.0286 21.8601C32.4423 23.3816 30.9804 24.9341 29.674 26.5488C29.2385 25.0583 28.8341 23.5679 28.492 22.0464C30.4516 17.1092 33.6243 12.3273 38.9121 7.91806C34.0597 11.3337 30.5449 15.1219 27.9321 19.0655C27.9321 18.9723 27.901 18.8791 27.8699 18.7549C27.8699 18.8791 27.8699 19.0034 27.8699 19.1586C25.6303 22.5121 24.044 25.9588 22.862 29.4366C21.7422 28.1635 20.5914 26.8904 19.3161 25.6483C19.2539 17.1092 21.2446 8.50804 27.2789 0.372615C18.8495 9.71903 15.8634 20.0901 15.3347 30.2749C15.2102 32.2312 15.2102 34.1874 15.2102 36.1436C13.064 30.4923 11.0422 24.841 10.2024 19.0965C9.86023 26.0209 11.1977 32.9764 12.4419 39.8698C9.39366 34.7153 5.56777 29.716 0.622118 24.9652C4.91457 30.5855 7.74511 36.4541 9.51808 42.3539C10.2646 44.9001 10.7312 47.4773 10.7934 50.0235C7.86952 46.2663 4.23027 42.6954 0.0311279 39.404C5.59888 46.2663 8.67825 53.6565 8.77156 60.7362H27.6832C27.6832 60.7362 27.7455 60.4878 27.7766 60.3946H43.3289C43.3289 60.3946 43.3289 60.5188 43.3289 60.5809H62.2406C62.9871 57.5379 63.9514 54.526 65.0401 51.4829C69.2081 46.049 76.9843 41.1118 87.7154 37.8514C80.0014 39.4972 73.0651 42.1365 67.4351 45.3969C69.488 40.6461 71.9453 35.9263 74.8069 31.2686" fill="#00642B"/>
<path d="M3.97852 65.7654C5.26823 65.7654 6.20931 66.0183 6.80176 66.5242C7.39876 67.0255 7.69727 67.7455 7.69727 68.6843C7.69727 69.1082 7.62663 69.5115 7.48535 69.8943C7.34863 70.2725 7.12533 70.6075 6.81543 70.8992C6.50553 71.1863 6.09766 71.4141 5.5918 71.5828C5.09049 71.7468 4.47526 71.8289 3.74609 71.8289H2.5293V75.7595H1.36719V65.7654H3.97852ZM3.86914 66.7566H2.5293V70.8308H3.61621C4.25423 70.8308 4.78516 70.7625 5.20898 70.6257C5.63737 70.489 5.95866 70.268 6.17285 69.9626C6.38704 69.6528 6.49414 69.2426 6.49414 68.7322C6.49414 68.0668 6.28223 67.5723 5.8584 67.2488C5.43457 66.9207 4.77148 66.7566 3.86914 66.7566ZM16.0576 75.7595L14.8271 72.5876H10.8213L9.59766 75.7595H8.42188L12.332 65.7244H13.3779L17.2607 75.7595H16.0576ZM14.4785 71.5554L13.3096 68.4041C13.2822 68.322 13.2367 68.1876 13.1729 68.0007C13.1136 67.8139 13.0521 67.6202 12.9883 67.4197C12.9245 67.2192 12.8721 67.0574 12.8311 66.9343C12.7855 67.1212 12.7354 67.308 12.6807 67.4949C12.6305 67.6772 12.5804 67.8481 12.5303 68.0076C12.4801 68.1625 12.4368 68.2947 12.4004 68.4041L11.2109 71.5554H14.4785ZM24.2881 73.1003C24.2881 73.6928 24.14 74.1986 23.8438 74.6179C23.5521 75.0326 23.1419 75.3494 22.6133 75.5681C22.0846 75.7869 21.4626 75.8962 20.7471 75.8962C20.3688 75.8962 20.0111 75.878 19.6738 75.8416C19.3366 75.8051 19.0267 75.7527 18.7441 75.6843C18.4616 75.616 18.2132 75.5317 17.999 75.4314V74.3171C18.3408 74.4584 18.7578 74.5906 19.25 74.7136C19.7422 74.8321 20.2572 74.8914 20.7949 74.8914C21.2962 74.8914 21.7201 74.8253 22.0664 74.6931C22.4128 74.5564 22.6748 74.3627 22.8525 74.1121C23.0348 73.8569 23.126 73.5515 23.126 73.196C23.126 72.8542 23.0508 72.5694 22.9004 72.3416C22.75 72.1091 22.4993 71.8995 22.1484 71.7126C21.8021 71.5212 21.3281 71.3184 20.7266 71.1042C20.3027 70.9539 19.929 70.7898 19.6055 70.6121C19.2819 70.4298 19.0107 70.2247 18.792 69.9968C18.5732 69.769 18.4069 69.5046 18.293 69.2039C18.1836 68.9031 18.1289 68.559 18.1289 68.1716C18.1289 67.6384 18.2633 67.1827 18.5322 66.8044C18.8057 66.4216 19.1816 66.13 19.6602 65.9294C20.1432 65.7244 20.6969 65.6218 21.3213 65.6218C21.8545 65.6218 22.3467 65.672 22.7979 65.7722C23.2536 65.8725 23.6706 66.0069 24.0488 66.1755L23.6865 67.1736C23.3265 67.0232 22.9437 66.8979 22.5381 66.7976C22.137 66.6973 21.7223 66.6472 21.2939 66.6472C20.8656 66.6472 20.5033 66.711 20.207 66.8386C19.9154 66.9617 19.6921 67.1371 19.5371 67.365C19.3822 67.5929 19.3047 67.864 19.3047 68.1785C19.3047 68.5294 19.3776 68.821 19.5234 69.0535C19.6738 69.2859 19.9108 69.4932 20.2344 69.6755C20.5625 69.8533 20.9954 70.0401 21.5332 70.2361C22.1211 70.4503 22.6201 70.6781 23.0303 70.9197C23.4404 71.1567 23.7526 71.4483 23.9668 71.7947C24.181 72.1365 24.2881 72.5717 24.2881 73.1003ZM29.4014 75.7595H28.2324V66.7908H25.0879V65.7654H32.5322V66.7908H29.4014V75.7595ZM42.7109 70.7488C42.7109 71.519 42.613 72.2208 42.417 72.8542C42.221 73.4832 41.9294 74.0255 41.542 74.4812C41.1592 74.9324 40.6829 75.281 40.1133 75.5271C39.5436 75.7732 38.8828 75.8962 38.1309 75.8962C37.3561 75.8962 36.6794 75.7732 36.1006 75.5271C35.5264 75.281 35.0479 74.9301 34.665 74.4744C34.2868 74.0186 34.002 73.474 33.8105 72.8406C33.6237 72.2071 33.5303 71.5053 33.5303 70.7351C33.5303 69.7143 33.6989 68.8188 34.0361 68.0486C34.3734 67.2784 34.8838 66.6791 35.5674 66.2507C36.2555 65.8223 37.1169 65.6082 38.1514 65.6082C39.1403 65.6082 39.972 65.8201 40.6465 66.2439C41.3255 66.6677 41.8382 67.2647 42.1846 68.0349C42.5355 68.8005 42.7109 69.7052 42.7109 70.7488ZM34.7539 70.7488C34.7539 71.5964 34.8747 72.3302 35.1162 72.95C35.3577 73.5697 35.7269 74.0483 36.2236 74.3855C36.7249 74.7227 37.3607 74.8914 38.1309 74.8914C38.9056 74.8914 39.5391 74.7227 40.0312 74.3855C40.528 74.0483 40.8949 73.5697 41.1318 72.95C41.3688 72.3302 41.4873 71.5964 41.4873 70.7488C41.4873 69.4591 41.2161 68.4519 40.6738 67.7273C40.1361 66.9981 39.2952 66.6335 38.1514 66.6335C37.3766 66.6335 36.7386 66.7999 36.2373 67.1326C35.736 67.4653 35.3623 67.9392 35.1162 68.5544C34.8747 69.1651 34.7539 69.8966 34.7539 70.7488ZM47.6396 65.7654C48.46 65.7654 49.1367 65.8679 49.6699 66.073C50.2077 66.2735 50.6087 66.5811 50.873 66.9958C51.1374 67.4106 51.2695 67.9392 51.2695 68.5818C51.2695 69.1104 51.1738 69.5525 50.9824 69.908C50.791 70.2589 50.5404 70.5437 50.2305 70.7625C49.9206 70.9812 49.5902 71.1498 49.2393 71.2683L51.9805 75.7595H50.627L48.1797 71.5896H46.1016V75.7595H44.9395V65.7654H47.6396ZM47.5713 66.7703H46.1016V70.6052H47.6875C48.5033 70.6052 49.1025 70.4389 49.4854 70.1062C49.8727 69.7735 50.0664 69.2836 50.0664 68.6365C50.0664 67.9574 49.8613 67.4766 49.4512 67.1941C49.0456 66.9115 48.4189 66.7703 47.5713 66.7703ZM59.1445 75.7595H53.5801V65.7654H59.1445V66.7908H54.7422V70.0242H58.8916V71.0359H54.7422V74.7341H59.1445V75.7595ZM61.3594 75.7595V65.7654H62.5215V75.7595H61.3594ZM73.9375 70.7488C73.9375 71.519 73.8395 72.2208 73.6436 72.8542C73.4476 73.4832 73.1559 74.0255 72.7686 74.4812C72.3857 74.9324 71.9095 75.281 71.3398 75.5271C70.7702 75.7732 70.1094 75.8962 69.3574 75.8962C68.5827 75.8962 67.9059 75.7732 67.3271 75.5271C66.7529 75.281 66.2744 74.9301 65.8916 74.4744C65.5133 74.0186 65.2285 73.474 65.0371 72.8406C64.8503 72.2071 64.7568 71.5053 64.7568 70.7351C64.7568 69.7143 64.9255 68.8188 65.2627 68.0486C65.5999 67.2784 66.1104 66.6791 66.7939 66.2507C67.4821 65.8223 68.3434 65.6082 69.3779 65.6082C70.3669 65.6082 71.1986 65.8201 71.873 66.2439C72.5521 66.6677 73.0648 67.2647 73.4111 68.0349C73.762 68.8005 73.9375 69.7052 73.9375 70.7488ZM65.9805 70.7488C65.9805 71.5964 66.1012 72.3302 66.3428 72.95C66.5843 73.5697 66.9535 74.0483 67.4502 74.3855C67.9515 74.7227 68.5872 74.8914 69.3574 74.8914C70.1322 74.8914 70.7656 74.7227 71.2578 74.3855C71.7546 74.0483 72.1214 73.5697 72.3584 72.95C72.5954 72.3302 72.7139 71.5964 72.7139 70.7488C72.7139 69.4591 72.4427 68.4519 71.9004 67.7273C71.3626 66.9981 70.5218 66.6335 69.3779 66.6335C68.6032 66.6335 67.9652 66.7999 67.4639 67.1326C66.9626 67.4653 66.5889 67.9392 66.3428 68.5544C66.1012 69.1651 65.9805 69.8966 65.9805 70.7488Z" fill="#00642B"/>
</svg>
