<svg width="109" height="80" viewBox="0 0 109 80" fill="none" xmlns="http://www.w3.org/2000/svg">
<path d="M12.8276 29.025C12.6843 30.4634 11.8603 33.1604 11.8603 33.1604C11.8603 33.1604 11.2512 31.3624 11.3945 30.9309C11.5378 30.4994 11.9319 29.6723 11.7528 27.7664C11.5737 25.8605 11.7528 25.7886 11.3945 24.53C11.0363 23.2714 10.7497 21.9049 10.3914 19.9631C10.0331 17.9853 9.4599 13.7779 9.35242 12.1597C9.24494 10.5056 9.92564 8.85139 9.92564 8.85139C9.92564 8.85139 10.3197 9.13907 10.4272 9.49867C10.4989 9.82231 10.5705 11.7282 10.9646 13.5262C11.3229 15.3242 11.8961 18.8123 12.326 21.2576C12.756 23.667 13.0067 27.5866 12.8634 29.061M100.818 0.904204C100.388 0.256922 98.3459 -0.210559 97.0562 0.436723C95.7664 1.084 94.3334 2.59433 93.5452 2.34261C92.757 2.09089 91.6822 0.436723 90.4999 0.149042C89.3176 -0.138639 88.6011 0.364802 88.1712 0.328842C87.7412 0.328842 85.4842 -0.138639 84.9109 0.0411614C84.3377 0.220962 83.6928 1.33573 82.8688 1.80321C82.0806 2.27069 81.8298 2.45049 81.5074 2.34261C81.185 2.23473 80.1818 0.796324 79.107 0.544603C78.0322 0.292882 76.205 0.292882 75.6676 0.616523C75.0944 0.904204 74.8078 1.22784 74.9869 1.51553C75.1661 1.80321 75.4527 2.41453 75.4527 2.41453C75.4527 2.41453 75.0228 2.37857 74.4854 2.27069C73.948 2.16281 70.7952 1.15592 68.359 0.940164C65.9228 0.724403 60.9429 1.22784 57.6468 1.40765C54.3507 1.58745 50.6964 1.29977 48.8334 1.65937C46.9705 2.01897 46.2897 2.27069 43.8535 1.91109C41.4531 1.58745 30.526 2.01897 27.9106 2.09089C25.2953 2.16281 22.9666 1.33573 20.8886 1.44361C18.8107 1.58745 18.1658 1.084 16.1237 1.11996C14.0815 1.15592 12.6485 0.904204 10.893 1.87513C9.13746 2.84605 8.02683 4.50021 7.63274 6.7657C7.23864 9.03119 7.63274 13.4543 7.91935 14.4612C8.20596 15.468 9.78234 22.5162 9.92564 24.7098C10.0331 26.328 9.53155 29.96 9.35242 32.3333C9.02998 32.7649 8.74336 33.3402 8.42092 33.4121C8.70754 33.5919 9.13746 33.52 9.13746 33.52C8.42092 34.1313 8.09848 35.2461 8.24179 35.8574C8.3851 35.5338 8.70754 35.1742 8.95832 35.1742C8.02683 37.5116 11.0004 39.2017 9.02998 41.9706C10.1406 41.7189 10.3914 40.0288 10.3914 40.0288C10.3914 40.0288 10.7855 40.2805 10.7497 40.9278C10.8213 40.8559 10.893 40.748 10.9288 40.6401C10.9288 40.712 10.9288 40.784 10.9288 40.8918C11.0004 41.9706 11.1438 43.5169 11.3587 44.3081C11.5737 45.0992 11.6812 49.738 11.7886 50.9966C11.9319 52.2552 12.0752 53.0464 11.9678 53.8375C11.8603 54.5926 11.5378 56.1749 11.9678 56.2828C12.3977 56.3906 12.8993 55.6714 13.365 56.2828C13.7949 56.8941 13.2217 58.2246 13.7949 58.6561C14.3682 59.0876 15.0847 59.8069 16.1595 59.9867C17.2343 60.1665 18.3091 59.9867 18.8465 59.5551C19.3481 59.1236 19.4197 58.728 18.8465 58.3684C18.2374 58.0088 17.5926 56.93 17.3418 56.4626C17.1268 56.031 17.3776 55.7793 16.9118 55.204C16.4461 54.5926 16.1595 54.4848 16.0162 53.6936C15.9087 52.9025 15.6937 51.572 15.5504 50.7449C15.4071 49.9178 15.2638 47.5804 15.2638 47.5804C15.2638 47.5804 15.5504 48.0839 15.6221 48.7671C15.6937 49.4503 15.7654 50.709 15.9445 51.2843C16.1237 51.8956 16.3028 52.435 16.3028 52.9025C16.3028 53.37 16.267 54.8084 16.8044 54.6646C17.3418 54.5567 17.4851 54.1971 17.8433 54.5207C18.2016 54.8444 17.9867 56.1749 18.3807 56.5704C18.8107 56.966 19.5272 57.829 20.0646 57.901C20.602 57.9729 22.2142 57.9729 22.8591 57.5414C23.504 57.1098 24.0414 56.6064 23.504 56.103C22.9666 55.5636 22.1067 54.9522 21.7485 54.3409C21.3902 53.7296 21.1036 53.0823 20.6737 52.7587C20.2437 52.435 20.1363 51.4641 19.7422 50.637C19.3481 49.8099 18.8823 48.1917 18.8107 47.041C18.7748 45.8903 18.4882 44.3081 18.6674 43.3012C18.8465 42.2943 19.2764 41.3234 19.2764 40.5322C19.2764 39.7771 19.5272 38.3387 19.563 37.7993C19.5989 37.2599 19.6705 37.0081 19.6705 37.0081C19.6705 37.0081 21.0319 37.4756 21.2469 37.6914C21.4618 37.9072 21.6052 38.8781 22.0709 39.1298C22.5366 39.3815 22.7874 39.2377 22.8591 38.5904C22.9307 37.9431 22.5008 36.6485 23.1099 36.1451C23.7189 35.6417 23.8981 35.2101 24.4355 35.3899C24.9729 35.5697 25.1162 36.1451 25.2236 36.6845C25.3311 37.2599 25.4386 37.9431 26.0118 37.9072C26.5851 37.8712 26.8358 37.6195 26.8 36.8643C26.8 36.1091 26.5851 35.2101 26.8 34.7786C27.0508 34.3471 27.5882 33.0166 27.8748 32.8727C28.1614 32.6929 28.4839 32.4053 28.7347 32.0816C28.9854 31.758 29.2721 31.3265 29.5587 31.3265C29.8811 31.3265 32.0665 32.9087 33.5713 33.3762C35.1118 33.8077 37.1539 34.8865 39.1602 34.9225C41.1665 34.9944 44.4984 34.9944 46.5764 34.455C48.6543 33.9156 52.3445 32.5851 54.2791 31.8659C56.2137 31.1467 58.2559 30.5713 58.2559 30.5713C58.2559 30.5713 58.1484 33.0166 58.1484 33.9515C58.1484 34.8865 58.1126 36.253 57.9692 36.9362C57.8259 37.6195 57.7185 38.8781 57.8618 39.3096C58.0051 39.7411 58.5066 41.683 58.2559 43.2652C58.0409 44.8834 57.8259 47.041 57.611 47.5804C57.4318 48.1558 57.4677 48.839 57.3244 49.0907C57.1811 49.3425 56.6437 50.709 57.0736 50.9607C57.4677 51.2124 57.8618 50.8888 58.0051 51.3922C58.1484 51.8956 58.1484 52.7587 58.435 53.334C58.7216 53.9094 59.6173 55.168 60.6921 55.3838C61.7669 55.5995 63.4507 55.4916 63.9523 54.9522C64.4539 54.4488 64.4897 54.1252 63.9523 53.7656C63.3791 53.4419 62.6984 52.471 62.5551 52.0035C62.4118 51.536 62.0177 50.9966 61.6594 50.4932C61.3011 49.9538 61.1937 48.875 61.0145 47.94C60.8354 47.0051 60.5846 44.0204 60.8712 43.0135C61.1936 42.0066 62.0177 41.4312 62.3401 40.6042C62.6625 39.7771 62.9133 38.4106 62.9133 37.3318C62.9133 36.253 63.1641 34.7427 63.1641 34.7427C63.1641 34.7427 63.3433 36.1811 63.5582 37.0081C63.7732 37.7993 63.4866 40.2086 63.6657 40.712C63.8448 41.2155 64.5972 42.2583 64.848 43.9844C65.0988 45.7105 65.3137 47.3287 65.3137 48.4075C65.3137 49.4863 65.457 50.5651 65.4929 50.8168C65.4929 51.0686 64.9913 52.2193 65.3495 52.7227C65.672 53.1902 66.3169 52.5789 66.711 53.0104C67.1051 53.4419 66.8184 54.5207 67.0692 55.0961C67.3558 55.6355 68.1799 56.6783 69.1114 56.8222C70.0429 56.966 71.4759 57.002 72.1208 56.5704C72.8015 56.1389 72.8732 55.6714 72.4074 55.3838C71.9058 55.0961 71.1893 53.9813 70.8669 53.334C70.5444 52.6868 70.1145 51.6799 69.8995 51.4282C69.6846 51.1405 69.7204 50.6011 69.5771 50.2055C69.398 49.8459 68.3232 47.041 68.1082 45.8903C67.8574 44.7396 67.6783 43.5169 67.9649 43.1214C68.2515 42.7258 68.8247 41.2874 68.8964 40.4603C68.9681 39.6332 68.7531 38.8421 68.6098 37.7633C68.4665 36.6845 68.7889 33.8437 68.7889 33.8437C68.7889 33.8437 70.2936 33.9875 71.261 33.52C72.1925 33.0525 73.3747 32.1176 73.9121 31.2186C74.4495 30.3196 76.6708 27.8383 77.4948 27.227C78.3188 26.6157 79.8952 25.5009 80.4326 24.53C80.97 23.5591 81.9015 21.7251 82.5464 20.8621C83.2271 19.999 83.6928 19.6394 83.8361 19.4596C83.9794 19.2439 84.0511 18.8843 84.266 18.7764C84.5168 18.6685 84.6601 18.3449 84.9109 18.2729C85.1617 18.237 85.7708 17.8774 85.7708 17.8774C85.7708 17.8774 85.5916 19.2079 85.7708 19.6035C85.9499 19.999 87.6696 20.8621 88.3861 20.934C89.1027 21.0059 89.5326 20.6823 90.0341 20.7182C90.4999 20.7901 92.1479 20.5744 92.6137 20.2148C93.0794 19.8552 93.1511 19.7113 93.0794 19.1719C93.0078 18.6325 92.7928 17.8414 92.757 17.4099C92.7212 16.9784 92.757 16.5468 92.6495 16.2951C92.5062 16.0434 92.2912 15.5759 92.3987 14.5331C92.5062 13.4902 92.9003 12.5912 93.0078 11.9799C93.1152 11.4046 92.9003 10.11 93.1152 9.31887C93.3302 8.56371 93.4377 8.34795 93.5093 7.6647C93.581 6.98146 93.5093 5.8667 93.6168 5.54306C93.7243 5.21942 93.7601 5.03962 94.19 5.03962C94.62 5.03962 96.6621 5.57902 97.4503 5.21942C98.2385 4.85982 99.2058 3.74505 99.8507 3.09777C100.496 2.45049 101.176 1.58745 100.746 0.904204" fill="#00642B"/>
<path d="M5.63965 69.4971H9.13281V74.3438C8.60872 74.5215 8.06868 74.6536 7.5127 74.7402C6.96126 74.8268 6.34375 74.8701 5.66016 74.8701C4.62109 74.8701 3.74382 74.6628 3.02832 74.248C2.31738 73.8333 1.77734 73.2432 1.4082 72.4775C1.03906 71.7074 0.854492 70.7936 0.854492 69.7363C0.854492 68.7018 1.05729 67.7995 1.46289 67.0293C1.87305 66.2591 2.46322 65.6621 3.2334 65.2383C4.00814 64.8099 4.93783 64.5957 6.02246 64.5957C6.57845 64.5957 7.10482 64.6481 7.60156 64.7529C8.10286 64.8532 8.56771 64.9967 8.99609 65.1836L8.55176 66.1953C8.18262 66.0358 7.77474 65.8991 7.32812 65.7852C6.88607 65.6712 6.42806 65.6143 5.9541 65.6143C5.13835 65.6143 4.4388 65.7829 3.85547 66.1201C3.27669 66.4574 2.83236 66.9336 2.52246 67.5488C2.21712 68.1641 2.06445 68.8932 2.06445 69.7363C2.06445 70.5703 2.19889 71.2972 2.46777 71.917C2.73665 72.5322 3.15592 73.0107 3.72559 73.3525C4.29525 73.6943 5.02897 73.8652 5.92676 73.8652C6.37793 73.8652 6.7653 73.8402 7.08887 73.79C7.41243 73.7354 7.70638 73.6715 7.9707 73.5986V70.5361H5.63965V69.4971ZM17.8213 74.7334L16.5908 71.5615H12.585L11.3613 74.7334H10.1855L14.0957 64.6982H15.1416L19.0244 74.7334H17.8213ZM16.2422 70.5293L15.0732 67.3779C15.0459 67.2959 15.0003 67.1615 14.9365 66.9746C14.8773 66.7878 14.8158 66.5941 14.752 66.3936C14.6882 66.193 14.6357 66.0312 14.5947 65.9082C14.5492 66.0951 14.499 66.2819 14.4443 66.4688C14.3942 66.651 14.3441 66.8219 14.2939 66.9814C14.2438 67.1364 14.2005 67.2686 14.1641 67.3779L12.9746 70.5293H16.2422ZM28.3486 69.6406C28.3486 70.7663 28.1436 71.7074 27.7334 72.4639C27.3232 73.2158 26.7285 73.7832 25.9492 74.166C25.1745 74.5443 24.2334 74.7334 23.126 74.7334H20.4121V64.7393H23.4268C24.443 64.7393 25.318 64.9261 26.0518 65.2998C26.7855 65.6689 27.3506 66.2181 27.7471 66.9473C28.1481 67.6719 28.3486 68.5697 28.3486 69.6406ZM27.125 69.6816C27.125 68.7839 26.9746 68.0433 26.6738 67.46C26.3776 66.8766 25.9401 66.4437 25.3613 66.1611C24.7871 65.874 24.083 65.7305 23.249 65.7305H21.5742V73.7354H22.9893C24.3656 73.7354 25.3978 73.3958 26.0859 72.7168C26.7786 72.0378 27.125 71.026 27.125 69.6816ZM39.2383 69.7227C39.2383 70.4928 39.1403 71.1947 38.9443 71.8281C38.7484 72.457 38.4567 72.9993 38.0693 73.4551C37.6865 73.9062 37.2103 74.2549 36.6406 74.501C36.071 74.7471 35.4102 74.8701 34.6582 74.8701C33.8835 74.8701 33.2067 74.7471 32.6279 74.501C32.0537 74.2549 31.5752 73.904 31.1924 73.4482C30.8141 72.9925 30.5293 72.4479 30.3379 71.8145C30.151 71.181 30.0576 70.4792 30.0576 69.709C30.0576 68.6882 30.2262 67.7926 30.5635 67.0225C30.9007 66.2523 31.4111 65.653 32.0947 65.2246C32.7829 64.7962 33.6442 64.582 34.6787 64.582C35.6676 64.582 36.4993 64.7939 37.1738 65.2178C37.8529 65.6416 38.3656 66.2386 38.7119 67.0088C39.0628 67.7744 39.2383 68.679 39.2383 69.7227ZM31.2812 69.7227C31.2812 70.5703 31.402 71.304 31.6436 71.9238C31.8851 72.5436 32.2542 73.0221 32.751 73.3594C33.2523 73.6966 33.888 73.8652 34.6582 73.8652C35.4329 73.8652 36.0664 73.6966 36.5586 73.3594C37.0553 73.0221 37.4222 72.5436 37.6592 71.9238C37.8962 71.304 38.0146 70.5703 38.0146 69.7227C38.0146 68.4329 37.7435 67.4258 37.2012 66.7012C36.6634 65.972 35.8226 65.6074 34.6787 65.6074C33.904 65.6074 33.266 65.7738 32.7646 66.1064C32.2633 66.4391 31.8896 66.9131 31.6436 67.5283C31.402 68.139 31.2812 68.8704 31.2812 69.7227ZM40.6602 71.4795V70.4678H44.0508V71.4795H40.6602ZM53.915 69.6406C53.915 70.7663 53.71 71.7074 53.2998 72.4639C52.8896 73.2158 52.2949 73.7832 51.5156 74.166C50.7409 74.5443 49.7998 74.7334 48.6924 74.7334H45.9785V64.7393H48.9932C50.0094 64.7393 50.8844 64.9261 51.6182 65.2998C52.3519 65.6689 52.917 66.2181 53.3135 66.9473C53.7145 67.6719 53.915 68.5697 53.915 69.6406ZM52.6914 69.6816C52.6914 68.7839 52.541 68.0433 52.2402 67.46C51.944 66.8766 51.5065 66.4437 50.9277 66.1611C50.3535 65.874 49.6494 65.7305 48.8154 65.7305H47.1406V73.7354H48.5557C49.932 73.7354 50.9642 73.3958 51.6523 72.7168C52.3451 72.0378 52.6914 71.026 52.6914 69.6816ZM61.7012 74.7334H56.1367V64.7393H61.7012V65.7646H57.2988V68.998H61.4482V70.0098H57.2988V73.708H61.7012V74.7334ZM63.1094 71.4795V70.4678H66.5V71.4795H63.1094ZM68.4277 74.7334V64.7393H69.5898V73.6943H74.0264V74.7334H68.4277ZM81.3066 74.7334H75.7422V64.7393H81.3066V65.7646H76.9043V68.998H81.0537V70.0098H76.9043V73.708H81.3066V74.7334ZM83.5215 74.7334V64.7393H84.6836V74.7334H83.5215ZM90.501 74.7334H89.332V65.7646H86.1875V64.7393H93.6318V65.7646H90.501V74.7334ZM100.707 74.7334H95.1426V64.7393H100.707V65.7646H96.3047V68.998H100.454V70.0098H96.3047V73.708H100.707V74.7334Z" fill="#00642B"/>
</svg>
