<svg width="20" height="37" viewBox="0 0 20 37" fill="none" xmlns="http://www.w3.org/2000/svg">
<rect x="0.5" y="0.5" width="19" height="29" rx="9.5" stroke="white"/>
<path d="M9.64644 36.3536C9.8417 36.5488 10.1583 36.5488 10.3535 36.3536L13.5355 33.1716C13.7308 32.9763 13.7308 32.6597 13.5355 32.4645C13.3403 32.2692 13.0237 32.2692 12.8284 32.4645L10 35.2929L7.17157 32.4645C6.97631 32.2692 6.65972 32.2692 6.46446 32.4645C6.2692 32.6597 6.2692 32.9763 6.46446 33.1716L9.64644 36.3536ZM9.5 21L9.5 36L10.5 36L10.5 21L9.5 21Z" fill="white"/>
<rect x="9" y="4" width="2" height="5" rx="1" fill="white"/>
</svg>
