<svg width="56" height="56" viewBox="0 0 56 56" fill="none" xmlns="http://www.w3.org/2000/svg">
<path fill-rule="evenodd" clip-rule="evenodd" d="M16.261 5.76095C16.4235 5.59798 16.6166 5.46868 16.8292 5.38046C17.0418 5.29224 17.2698 5.24683 17.5 5.24683C17.7301 5.24683 17.9581 5.29224 18.1707 5.38046C18.3833 5.46868 18.5764 5.59798 18.739 5.76095L39.739 26.761C39.9019 26.9235 40.0312 27.1166 40.1194 27.3292C40.2077 27.5418 40.2531 27.7698 40.2531 28C40.2531 28.2301 40.2077 28.4581 40.1194 28.6707C40.0312 28.8833 39.9019 29.0764 39.739 29.239L18.739 50.239C18.4104 50.5676 17.9647 50.7522 17.5 50.7522C17.0352 50.7522 16.5896 50.5676 16.261 50.239C15.9324 49.9104 15.7477 49.4647 15.7477 49C15.7477 48.5352 15.9324 48.0896 16.261 47.761L36.0255 28L16.261 8.23895C16.098 8.0764 15.9687 7.88328 15.8805 7.67067C15.7922 7.45806 15.7468 7.23014 15.7468 6.99995C15.7468 6.76977 15.7922 6.54185 15.8805 6.32924C15.9687 6.11663 16.098 5.92351 16.261 5.76095Z" fill="#007608"/>
</svg>
