<svg width="56" height="56" viewBox="0 0 56 56" fill="none" xmlns="http://www.w3.org/2000/svg">
<path fill-rule="evenodd" clip-rule="evenodd" d="M16.2612 5.76102C16.4238 5.59804 16.6169 5.46874 16.8295 5.38052C17.0421 5.2923 17.27 5.24689 17.5002 5.24689C17.7304 5.24689 17.9583 5.2923 18.1709 5.38052C18.3835 5.46874 18.5766 5.59804 18.7392 5.76102L39.7392 26.761C39.9022 26.9236 40.0315 27.1167 40.1197 27.3293C40.2079 27.5419 40.2533 27.7698 40.2533 28C40.2533 28.2302 40.2079 28.4581 40.1197 28.6707C40.0315 28.8833 39.9022 29.0765 39.7392 29.239L18.7392 50.239C18.4106 50.5676 17.9649 50.7522 17.5002 50.7522C17.0355 50.7522 16.5898 50.5676 16.2612 50.239C15.9326 49.9104 15.748 49.4647 15.748 49C15.748 48.5353 15.9326 48.0896 16.2612 47.761L36.0257 28L16.2612 8.23902C16.0982 8.07646 15.9689 7.88334 15.8807 7.67073C15.7925 7.45813 15.7471 7.2302 15.7471 7.00002C15.7471 6.76983 15.7925 6.54191 15.8807 6.3293C15.9689 6.11669 16.0982 5.92358 16.2612 5.76102Z" fill="#A5BB3C"/>
</svg>
