<svg width="56" height="56" viewBox="0 0 56 56" fill="none" xmlns="http://www.w3.org/2000/svg">
<path fill-rule="evenodd" clip-rule="evenodd" d="M39.739 5.76095C39.9019 5.92351 40.0312 6.11663 40.1194 6.32924C40.2077 6.54185 40.2531 6.76977 40.2531 6.99995C40.2531 7.23014 40.2077 7.45806 40.1194 7.67067C40.0312 7.88328 39.9019 8.0764 39.739 8.23895L19.9745 28L39.739 47.761C40.0676 48.0896 40.2522 48.5352 40.2522 49C40.2522 49.4647 40.0676 49.9104 39.739 50.239C39.4104 50.5676 38.9647 50.7522 38.5 50.7522C38.0352 50.7522 37.5896 50.5676 37.261 50.239L16.261 29.239C16.098 29.0764 15.9687 28.8833 15.8805 28.6707C15.7922 28.4581 15.7468 28.2301 15.7468 28C15.7468 27.7698 15.7922 27.5418 15.8805 27.3292C15.9687 27.1166 16.098 26.9235 16.261 26.761L37.261 5.76095C37.4235 5.59798 37.6166 5.46868 37.8292 5.38046C38.0418 5.29224 38.2698 5.24683 38.5 5.24683C38.7301 5.24683 38.9581 5.29224 39.1707 5.38046C39.3833 5.46868 39.5764 5.59798 39.739 5.76095Z" fill="#007608"/>
</svg>
