<svg width="56" height="56" viewBox="0 0 56 56" fill="none" xmlns="http://www.w3.org/2000/svg">
<path fill-rule="evenodd" clip-rule="evenodd" d="M39.7392 5.76102C39.9022 5.92358 40.0315 6.11669 40.1197 6.3293C40.2079 6.54191 40.2533 6.76983 40.2533 7.00002C40.2533 7.2302 40.2079 7.45813 40.1197 7.67073C40.0315 7.88334 39.9022 8.07646 39.7392 8.23902L19.9747 28L39.7392 47.761C40.0678 48.0896 40.2524 48.5353 40.2524 49C40.2524 49.4647 40.0678 49.9104 39.7392 50.239C39.4106 50.5676 38.9649 50.7522 38.5002 50.7522C38.0355 50.7522 37.5898 50.5676 37.2612 50.239L16.2612 29.239C16.0982 29.0765 15.9689 28.8833 15.8807 28.6707C15.7925 28.4581 15.7471 28.2302 15.7471 28C15.7471 27.7698 15.7925 27.5419 15.8807 27.3293C15.9689 27.1167 16.0982 26.9236 16.2612 26.761L37.2612 5.76102C37.4238 5.59804 37.6169 5.46874 37.8295 5.38052C38.0421 5.2923 38.27 5.24689 38.5002 5.24689C38.7304 5.24689 38.9583 5.2923 39.1709 5.38052C39.3835 5.46874 39.5766 5.59804 39.7392 5.76102Z" fill="#A5BB3C"/>
</svg>
