<svg width="19" height="19" viewBox="0 0 19 19" fill="none" xmlns="http://www.w3.org/2000/svg">
<path d="M13.3132 18.1974C11.1581 18.1004 7.69191 17.3211 4.28548 13.9148C0.879037 10.5083 0.0998485 7.04213 0.00281397 4.88696C-0.0532563 3.64935 0.733618 2.52948 1.91434 2.15414L3.03587 1.79812C3.45194 1.6661 3.89902 1.87694 4.06179 2.28154L5.47075 5.78856C5.58999 6.08536 5.52909 6.42403 5.31367 6.66049L4.2095 7.87331C4.02651 8.07393 3.97442 8.36107 4.07318 8.61406C4.31621 9.2351 4.9272 10.4584 6.33446 11.8657C7.74172 13.273 8.96513 13.884 9.58613 14.127C9.83911 14.2257 10.1263 14.1736 10.3269 13.9906L11.5397 12.8865C11.7762 12.6711 12.1148 12.6102 12.4116 12.7294L15.9186 14.1383C16.3232 14.3012 16.5341 14.7482 16.4021 15.1643L16.046 16.2858C15.6707 17.4666 14.5508 18.2534 13.3132 18.1974Z" fill="#4A4A4A"/>
<path d="M17.3073 10.6001C17.2166 10.5094 17.159 10.3855 17.1545 10.2473C17.0755 7.82656 16.0865 5.54796 14.3696 3.83107C12.6527 2.11418 10.3741 1.12516 7.9534 1.04619C7.66465 1.03683 7.43816 0.795107 7.44755 0.50617C7.45698 0.217376 7.69874 -0.00903936 7.98754 0.00031776C10.6748 0.0880762 13.2041 1.1857 15.1095 3.09115C17.0148 4.9966 18.1126 7.52585 18.2003 10.2131C18.2097 10.502 17.9833 10.7436 17.6945 10.7531C17.5438 10.758 17.4061 10.6988 17.3073 10.6001Z" fill="#4A4A4A"/>
<path d="M14.8961 10.6003C14.8066 10.511 14.7492 10.3892 14.7433 10.2529C14.6666 8.47325 13.9288 6.79745 12.6656 5.53436C11.4025 4.27113 9.72669 3.53319 7.94698 3.45661C7.65832 3.44415 7.43436 3.19999 7.44678 2.91131C7.45923 2.62262 7.70333 2.39876 7.99201 2.41108C10.0341 2.49914 11.9566 3.34559 13.4055 4.79445C14.8544 6.24332 15.7008 8.16581 15.7889 10.208C15.8012 10.4967 15.5773 10.7407 15.2886 10.7532C15.1362 10.7597 14.996 10.7004 14.8961 10.6003Z" fill="#4A4A4A"/>
<path d="M12.4837 10.6003C12.3969 10.5135 12.3402 10.396 12.3317 10.2638C12.2588 9.12228 11.7724 8.04749 10.9625 7.23759C10.1524 6.42754 9.07769 5.94118 7.93609 5.86824C7.64773 5.84976 7.42891 5.60098 7.44738 5.31272C7.46582 5.02432 7.71454 4.8055 8.00289 4.82398C9.39854 4.9133 10.7123 5.5076 11.7024 6.49755C12.6923 7.48763 13.2868 8.8014 13.376 10.1971C13.3944 10.4855 13.1756 10.7341 12.8872 10.7526C12.731 10.7625 12.5864 10.7029 12.4837 10.6003Z" fill="#4A4A4A"/>
</svg>
